<svg width="512" height="512" version="1.1" xmlns="http://www.w3.org/2000/svg" desc="Created with imagetracer.js version 1.2.6" ><path fill="rgb(246,205,162)" stroke="rgb(246,205,162)" stroke-width="1" opacity="1" d="M 306.5 96 L 313 96.5 L 306.5 97 L 306.5 96 Z " /><path fill="rgb(246,205,162)" stroke="rgb(246,205,162)" stroke-width="1" opacity="1" d="M 317.5 96 L 323 96.5 L 317.5 97 L 317.5 96 Z " /><path fill="rgb(246,205,162)" stroke="rgb(246,205,162)" stroke-width="1" opacity="1" d="M 294.5 98 L 297 98.5 L 294.5 99 L 294.5 98 Z " /><path fill="rgb(246,205,162)" stroke="rgb(246,205,162)" stroke-width="1" opacity="1" d="M 288.5 99 L 291 99.5 L 288.5 100 L 288.5 99 Z " /><path fill="rgb(246,205,162)" stroke="rgb(246,205,162)" stroke-width="1" opacity="1" d="M 282.5 100 L 285 100.5 L 282.5 101 L 282.5 100 Z " /><path fill="rgb(246,205,162)" stroke="rgb(246,205,162)" stroke-width="1" opacity="1" d="M 276.5 101 L 279 101.5 L 276.5 102 L 276.5 101 Z " /><path fill="rgb(246,205,162)" stroke="rgb(246,205,162)" stroke-width="1" opacity="1" d="M 265.5 103 L 268 103.5 L 265.5 104 L 265.5 103 Z " /><path fill="rgb(246,205,162)" stroke="rgb(246,205,162)" stroke-width="1" opacity="1" d="M 259.5 104 L 262 104.5 L 259.5 105 L 259.5 104 Z " /><path fill="rgb(246,205,162)" stroke="rgb(246,205,162)" stroke-width="1" opacity="1" d="M 253.5 105 L 256 105.5 L 253.5 106 L 253.5 105 Z " /><path fill="rgb(246,205,162)" stroke="rgb(246,205,162)" stroke-width="1" opacity="1" d="M 247.5 106 L 250 106.5 L 247.5 107 L 247.5 106 Z " /><path fill="rgb(246,205,162)" stroke="rgb(246,205,162)" stroke-width="1" opacity="1" d="M 236.5 108 L 239 108.5 L 236.5 109 L 236.5 108 Z " /><path fill="rgb(246,205,162)" stroke="rgb(246,205,162)" stroke-width="1" opacity="1" d="M 230.5 109 L 233 109.5 L 230.5 110 L 230.5 109 Z " /><path fill="rgb(246,205,162)" stroke="rgb(246,205,162)" stroke-width="1" opacity="1" d="M 224.5 110 L 227 110.5 L 224.5 111 L 224.5 110 Z " /><path fill="rgb(246,205,162)" stroke="rgb(246,205,162)" stroke-width="1" opacity="1" d="M 218.5 111 L 221 111.5 L 218.5 112 L 218.5 111 Z " /><path fill="rgb(246,205,162)" stroke="rgb(246,205,162)" stroke-width="1" opacity="1" d="M 377.5 111 L 380 111.5 L 377.5 112 L 377.5 111 Z " /><path fill="rgb(246,205,162)" stroke="rgb(246,205,162)" stroke-width="1" opacity="1" d="M 384.5 112 L 399 112.5 L 384.5 113 L 384.5 112 Z " /><path fill="rgb(246,205,162)" stroke="rgb(246,205,162)" stroke-width="1" opacity="1" d="M 207.5 113 L 210 113.5 L 207.5 114 L 207.5 113 Z " /><path fill="rgb(246,205,162)" stroke="rgb(246,205,162)" stroke-width="1" opacity="1" d="M 201.5 114 L 204 114.5 L 201.5 115 L 201.5 114 Z " /><path fill="rgb(246,205,162)" stroke="rgb(246,205,162)" stroke-width="1" opacity="1" d="M 195.5 115 L 198 115.5 L 195.5 116 L 195.5 115 Z " /><path fill="rgb(246,205,162)" stroke="rgb(246,205,162)" stroke-width="1" opacity="1" d="M 178.5 118 L 181 118.5 L 178.5 119 L 178.5 118 Z " /><path fill="rgb(246,205,162)" stroke="rgb(246,205,162)" stroke-width="1" opacity="1" d="M 169.5 128 L 170.5 130 L 169.5 128 Z " /><path fill="rgb(246,205,162)" stroke="rgb(246,205,162)" stroke-width="1" opacity="1" d="M 296.5 139 L 300 139.5 L 296.5 140 L 296.5 139 Z " /><path fill="rgb(246,205,162)" stroke="rgb(246,205,162)" stroke-width="1" opacity="1" d="M 305.5 139 L 310 139.5 L 305.5 140 L 305.5 139 Z " /><path fill="rgb(246,205,162)" stroke="rgb(246,205,162)" stroke-width="1" opacity="1" d="M 314.5 140 L 317 140.5 L 314.5 141 L 314.5 140 Z " /><path fill="rgb(246,205,162)" stroke="rgb(246,205,162)" stroke-width="1" opacity="1" d="M 319.5 141 L 322 141.5 L 319.5 142 L 319.5 141 Z " /><path fill="rgb(246,205,162)" stroke="rgb(246,205,162)" stroke-width="1" opacity="1" d="M 288.5 142 L 287.5 144 L 288.5 142 Z " /><path fill="rgb(246,205,162)" stroke="rgb(246,205,162)" stroke-width="1" opacity="1" d="M 284.5 149 L 285 152.5 L 284 152.5 L 284.5 149 Z " /><path fill="rgb(246,205,162)" stroke="rgb(246,205,162)" stroke-width="1" opacity="1" d="M 364.5 149 L 362.5 152 L 364.5 149 Z " /><path fill="rgb(246,205,162)" stroke="rgb(246,205,162)" stroke-width="1" opacity="1" d="M 357.5 152 L 361 152.5 L 357.5 153 L 357.5 152 Z " /><path fill="rgb(246,205,162)" stroke="rgb(246,205,162)" stroke-width="1" opacity="1" d="M 151.5 359 L 155 359.5 L 151.5 360 L 151.5 359 Z " /><path fill="rgb(246,205,162)" stroke="rgb(246,205,162)" stroke-width="1" opacity="1" d="M 227.5 359 L 228 362.5 L 227 362.5 L 227.5 359 Z " /><path fill="rgb(246,205,162)" stroke="rgb(246,205,162)" stroke-width="1" opacity="1" d="M 149.5 360 L 147.5 363 L 149.5 360 Z " /><path fill="rgb(246,205,162)" stroke="rgb(246,205,162)" stroke-width="1" opacity="1" d="M 195.5 371 L 198 371.5 L 195.5 372 L 195.5 371 Z " /><path fill="rgb(246,205,162)" stroke="rgb(246,205,162)" stroke-width="1" opacity="1" d="M 202.5 372 L 208 372.5 L 202.5 373 L 202.5 372 Z " /><path fill="rgb(246,205,162)" stroke="rgb(246,205,162)" stroke-width="1" opacity="1" d="M 211.5 372 L 216 372.5 L 211.5 373 L 211.5 372 Z " /><path fill="rgb(246,205,162)" stroke="rgb(246,205,162)" stroke-width="1" opacity="1" d="M 341.5 382 L 342.5 384 L 341.5 382 Z " /><path fill="rgb(246,205,162)" stroke="rgb(246,205,162)" stroke-width="1" opacity="1" d="M 331.5 393 L 334 393.5 L 331.5 394 L 331.5 393 Z " /><path fill="rgb(246,205,162)" stroke="rgb(246,205,162)" stroke-width="1" opacity="1" d="M 320.5 395 L 323 395.5 L 320.5 396 L 320.5 395 Z " /><path fill="rgb(246,205,162)" stroke="rgb(246,205,162)" stroke-width="1" opacity="1" d="M 314.5 396 L 317 396.5 L 314.5 397 L 314.5 396 Z " /><path fill="rgb(246,205,162)" stroke="rgb(246,205,162)" stroke-width="1" opacity="1" d="M 308.5 397 L 311 397.5 L 308.5 398 L 308.5 397 Z " /><path fill="rgb(246,205,162)" stroke="rgb(246,205,162)" stroke-width="1" opacity="1" d="M 113.5 399 L 128 399.5 L 113.5 400 L 113.5 399 Z " /><path fill="rgb(246,205,162)" stroke="rgb(246,205,162)" stroke-width="1" opacity="1" d="M 132.5 400 L 135 400.5 L 132.5 401 L 132.5 400 Z " /><path fill="rgb(246,205,162)" stroke="rgb(246,205,162)" stroke-width="1" opacity="1" d="M 291.5 400 L 294 400.5 L 291.5 401 L 291.5 400 Z " /><path fill="rgb(246,205,162)" stroke="rgb(246,205,162)" stroke-width="1" opacity="1" d="M 285.5 401 L 288 401.5 L 285.5 402 L 285.5 401 Z " /><path fill="rgb(246,205,162)" stroke="rgb(246,205,162)" stroke-width="1" opacity="1" d="M 279.5 402 L 282 402.5 L 279.5 403 L 279.5 402 Z " /><path fill="rgb(246,205,162)" stroke="rgb(246,205,162)" stroke-width="1" opacity="1" d="M 262.5 405 L 265 405.5 L 262.5 406 L 262.5 405 Z " /><path fill="rgb(246,205,162)" stroke="rgb(246,205,162)" stroke-width="1" opacity="1" d="M 256.5 406 L 259 406.5 L 256.5 407 L 256.5 406 Z " /><path fill="rgb(246,205,162)" stroke="rgb(246,205,162)" stroke-width="1" opacity="1" d="M 250.5 407 L 253 407.5 L 250.5 408 L 250.5 407 Z " /><path fill="rgb(246,205,162)" stroke="rgb(246,205,162)" stroke-width="1" opacity="1" d="M 244.5 408 L 247 408.5 L 244.5 409 L 244.5 408 Z " /><path fill="rgb(246,205,162)" stroke="rgb(246,205,162)" stroke-width="1" opacity="1" d="M 233.5 410 L 236 410.5 L 233.5 411 L 233.5 410 Z " /><path fill="rgb(246,205,162)" stroke="rgb(246,205,162)" stroke-width="1" opacity="1" d="M 227.5 411 L 230 411.5 L 227.5 412 L 227.5 411 Z " /><path fill="rgb(246,205,162)" stroke="rgb(246,205,162)" stroke-width="1" opacity="1" d="M 221.5 412 L 224 412.5 L 221.5 413 L 221.5 412 Z " /><path fill="rgb(246,205,162)" stroke="rgb(246,205,162)" stroke-width="1" opacity="1" d="M 209.5 414 L 212 414.5 L 209.5 415 L 209.5 414 Z " /><path fill="rgb(246,205,162)" stroke="rgb(246,205,162)" stroke-width="1" opacity="1" d="M 189.5 415 L 196 415.5 L 189.5 416 L 189.5 415 Z " /><path fill="rgb(246,205,162)" stroke="rgb(246,205,162)" stroke-width="1" opacity="1" d="M 198.5 415 L 205 415.5 L 198.5 416 L 198.5 415 Z " /><path fill="rgb(180,145,109)" stroke="rgb(180,145,109)" stroke-width="1" opacity="1" d="M 315.5 87 L 322 87.5 L 315.5 88 L 315.5 87 Z " /><path fill="rgb(180,145,109)" stroke="rgb(180,145,109)" stroke-width="1" opacity="1" d="M 305.5 88 L 309 88.5 L 305.5 89 L 305.5 88 Z " /><path fill="rgb(180,145,109)" stroke="rgb(180,145,109)" stroke-width="1" opacity="1" d="M 327.5 88 L 330 88.5 L 327.5 89 L 327.5 88 Z " /><path fill="rgb(180,145,109)" stroke="rgb(180,145,109)" stroke-width="1" opacity="1" d="M 423.5 88 L 424.5 90 L 423.5 88 Z " /><path fill="rgb(180,145,109)" stroke="rgb(180,145,109)" stroke-width="1" opacity="1" d="M 298.5 89 L 301 89.5 L 298.5 90 L 298.5 89 Z " /><path fill="rgb(180,145,109)" stroke="rgb(180,145,109)" stroke-width="1" opacity="1" d="M 292.5 90 L 295 90.5 L 292.5 91 L 292.5 90 Z " /><path fill="rgb(180,145,109)" stroke="rgb(180,145,109)" stroke-width="1" opacity="1" d="M 287.5 91 L 290 91.5 L 287.5 92 L 287.5 91 Z " /><path fill="rgb(180,145,109)" stroke="rgb(180,145,109)" stroke-width="1" opacity="1" d="M 425.5 91 L 427 94.5 L 426 94.5 L 425.5 91 Z " /><path fill="rgb(180,145,109)" stroke="rgb(180,145,109)" stroke-width="1" opacity="1" d="M 281.5 92 L 284 92.5 L 281.5 93 L 281.5 92 Z " /><path fill="rgb(180,145,109)" stroke="rgb(180,145,109)" stroke-width="1" opacity="1" d="M 275.5 93 L 278 93.5 L 275.5 94 L 275.5 93 Z " /><path fill="rgb(180,145,109)" stroke="rgb(180,145,109)" stroke-width="1" opacity="1" d="M 270.5 94 L 273 94.5 L 270.5 95 L 270.5 94 Z " /><path fill="rgb(180,145,109)" stroke="rgb(180,145,109)" stroke-width="1" opacity="1" d="M 264.5 95 L 267 95.5 L 264.5 96 L 264.5 95 Z " /><path fill="rgb(180,145,109)" stroke="rgb(180,145,109)" stroke-width="1" opacity="1" d="M 253.5 97 L 256 97.5 L 253.5 98 L 253.5 97 Z " /><path fill="rgb(180,145,109)" stroke="rgb(180,145,109)" stroke-width="1" opacity="1" d="M 247.5 98 L 250 98.5 L 247.5 99 L 247.5 98 Z " /><path fill="rgb(180,145,109)" stroke="rgb(180,145,109)" stroke-width="1" opacity="1" d="M 364.5 98 L 367 98.5 L 364.5 99 L 364.5 98 Z " /><path fill="rgb(180,145,109)" stroke="rgb(180,145,109)" stroke-width="1" opacity="1" d="M 369.5 99 L 372 99.5 L 369.5 100 L 369.5 99 Z " /><path fill="rgb(180,145,109)" stroke="rgb(180,145,109)" stroke-width="1" opacity="1" d="M 392.5 99 L 395 99.5 L 392.5 100 L 392.5 99 Z " /><path fill="rgb(180,145,109)" stroke="rgb(180,145,109)" stroke-width="1" opacity="1" d="M 236.5 100 L 239 100.5 L 236.5 101 L 236.5 100 Z " /><path fill="rgb(180,145,109)" stroke="rgb(180,145,109)" stroke-width="1" opacity="1" d="M 376.5 100 L 388 100.5 L 376.5 101 L 376.5 100 Z " /><path fill="rgb(180,145,109)" stroke="rgb(180,145,109)" stroke-width="1" opacity="1" d="M 230.5 101 L 233 101.5 L 230.5 102 L 230.5 101 Z " /><path fill="rgb(180,145,109)" stroke="rgb(180,145,109)" stroke-width="1" opacity="1" d="M 225.5 102 L 228 102.5 L 225.5 103 L 225.5 102 Z " /><path fill="rgb(180,145,109)" stroke="rgb(180,145,109)" stroke-width="1" opacity="1" d="M 219.5 103 L 222 103.5 L 219.5 104 L 219.5 103 Z " /><path fill="rgb(180,145,109)" stroke="rgb(180,145,109)" stroke-width="1" opacity="1" d="M 208.5 105 L 211 105.5 L 208.5 106 L 208.5 105 Z " /><path fill="rgb(180,145,109)" stroke="rgb(180,145,109)" stroke-width="1" opacity="1" d="M 197.5 107 L 200 107.5 L 197.5 108 L 197.5 107 Z " /><path fill="rgb(180,145,109)" stroke="rgb(180,145,109)" stroke-width="1" opacity="1" d="M 191.5 108 L 194 108.5 L 191.5 109 L 191.5 108 Z " /><path fill="rgb(180,145,109)" stroke="rgb(180,145,109)" stroke-width="1" opacity="1" d="M 180.5 110 L 183 110.5 L 180.5 111 L 180.5 110 Z " /><path fill="rgb(180,145,109)" stroke="rgb(180,145,109)" stroke-width="1" opacity="1" d="M 170.5 114 L 167.5 118 L 170.5 114 Z " /><path fill="rgb(180,145,109)" stroke="rgb(180,145,109)" stroke-width="1" opacity="1" d="M 166.5 120 L 167 123.5 L 166 123.5 L 166.5 120 Z " /><path fill="rgb(180,145,109)" stroke="rgb(180,145,109)" stroke-width="1" opacity="1" d="M 292.5 121 L 295 121.5 L 292.5 122 L 292.5 121 Z " /><path fill="rgb(180,145,109)" stroke="rgb(180,145,109)" stroke-width="1" opacity="1" d="M 305.5 121 L 310 121.5 L 305.5 122 L 305.5 121 Z " /><path fill="rgb(180,145,109)" stroke="rgb(180,145,109)" stroke-width="1" opacity="1" d="M 279.5 126 L 278.5 128 L 279.5 126 Z " /><path fill="rgb(180,145,109)" stroke="rgb(180,145,109)" stroke-width="1" opacity="1" d="M 233.5 128 L 243 128.5 L 233.5 129 L 233.5 128 Z " /><path fill="rgb(180,145,109)" stroke="rgb(180,145,109)" stroke-width="1" opacity="1" d="M 217.5 129 L 223 129.5 L 217.5 130 L 217.5 129 Z " /><path fill="rgb(180,145,109)" stroke="rgb(180,145,109)" stroke-width="1" opacity="1" d="M 206.5 130 L 210 130.5 L 206.5 131 L 206.5 130 Z " /><path fill="rgb(180,145,109)" stroke="rgb(180,145,109)" stroke-width="1" opacity="1" d="M 196.5 131 L 200 131.5 L 196.5 132 L 196.5 131 Z " /><path fill="rgb(180,145,109)" stroke="rgb(180,145,109)" stroke-width="1" opacity="1" d="M 294.5 131 L 307 131.5 L 294.5 132 L 294.5 131 Z " /><path fill="rgb(180,145,109)" stroke="rgb(180,145,109)" stroke-width="1" opacity="1" d="M 189.5 132 L 192 132.5 L 189.5 133 L 189.5 132 Z " /><path fill="rgb(180,145,109)" stroke="rgb(180,145,109)" stroke-width="1" opacity="1" d="M 311.5 132 L 314 132.5 L 311.5 133 L 311.5 132 Z " /><path fill="rgb(180,145,109)" stroke="rgb(180,145,109)" stroke-width="1" opacity="1" d="M 178.5 133 L 185 133.5 L 178.5 134 L 178.5 133 Z " /><path fill="rgb(180,145,109)" stroke="rgb(180,145,109)" stroke-width="1" opacity="1" d="M 287.5 133 L 286.5 135 L 287.5 133 Z " /><path fill="rgb(180,145,109)" stroke="rgb(180,145,109)" stroke-width="1" opacity="1" d="M 284.5 135 L 283.5 137 L 284.5 135 Z " /><path fill="rgb(180,145,109)" stroke="rgb(180,145,109)" stroke-width="1" opacity="1" d="M 359.5 135 L 360.5 137 L 359.5 135 Z " /><path fill="rgb(180,145,109)" stroke="rgb(180,145,109)" stroke-width="1" opacity="1" d="M 360.5 142 L 359.5 144 L 360.5 142 Z " /><path fill="rgb(180,145,109)" stroke="rgb(180,145,109)" stroke-width="1" opacity="1" d="M 354.5 144 L 358 144.5 L 354.5 145 L 354.5 144 Z " /><path fill="rgb(180,145,109)" stroke="rgb(180,145,109)" stroke-width="1" opacity="1" d="M 282.5 151 L 283.5 153 L 282.5 151 Z " /><path fill="rgb(180,145,109)" stroke="rgb(180,145,109)" stroke-width="1" opacity="1" d="M 358.5 182 L 361 182.5 L 358.5 183 L 358.5 182 Z " /><path fill="rgb(180,145,109)" stroke="rgb(180,145,109)" stroke-width="1" opacity="1" d="M 371.5 182 L 374 182.5 L 371.5 183 L 371.5 182 Z " /><path fill="rgb(180,145,109)" stroke="rgb(180,145,109)" stroke-width="1" opacity="1" d="M 200.5 186 L 201.5 188 L 200.5 186 Z " /><path fill="rgb(180,145,109)" stroke="rgb(180,145,109)" stroke-width="1" opacity="1" d="M 273.5 213 L 272.5 215 L 273.5 213 Z " /><path fill="rgb(180,145,109)" stroke="rgb(180,145,109)" stroke-width="1" opacity="1" d="M 359.5 276 L 357.5 279 L 359.5 276 Z " /><path fill="rgb(180,145,109)" stroke="rgb(180,145,109)" stroke-width="1" opacity="1" d="M 138.5 329 L 141 329.5 L 138.5 330 L 138.5 329 Z " /><path fill="rgb(180,145,109)" stroke="rgb(180,145,109)" stroke-width="1" opacity="1" d="M 228.5 359 L 229.5 361 L 228.5 359 Z " /><path fill="rgb(180,145,109)" stroke="rgb(180,145,109)" stroke-width="1" opacity="1" d="M 154.5 367 L 158 367.5 L 154.5 368 L 154.5 367 Z " /><path fill="rgb(180,145,109)" stroke="rgb(180,145,109)" stroke-width="1" opacity="1" d="M 152.5 368 L 151.5 370 L 152.5 368 Z " /><path fill="rgb(180,145,109)" stroke="rgb(180,145,109)" stroke-width="1" opacity="1" d="M 151.5 375 L 152.5 377 L 151.5 375 Z " /><path fill="rgb(180,145,109)" stroke="rgb(180,145,109)" stroke-width="1" opacity="1" d="M 225.5 377 L 224.5 379 L 223 378.5 L 225.5 377 Z " /><path fill="rgb(180,145,109)" stroke="rgb(180,145,109)" stroke-width="1" opacity="1" d="M 327.5 378 L 334 378.5 L 327.5 379 L 327.5 378 Z " /><path fill="rgb(180,145,109)" stroke="rgb(180,145,109)" stroke-width="1" opacity="1" d="M 198.5 379 L 201 379.5 L 198.5 380 L 198.5 379 Z " /><path fill="rgb(180,145,109)" stroke="rgb(180,145,109)" stroke-width="1" opacity="1" d="M 320.5 379 L 323 379.5 L 320.5 380 L 320.5 379 Z " /><path fill="rgb(180,145,109)" stroke="rgb(180,145,109)" stroke-width="1" opacity="1" d="M 205.5 380 L 218 380.5 L 205.5 381 L 205.5 380 Z " /><path fill="rgb(180,145,109)" stroke="rgb(180,145,109)" stroke-width="1" opacity="1" d="M 312.5 380 L 316 380.5 L 312.5 381 L 312.5 380 Z " /><path fill="rgb(180,145,109)" stroke="rgb(180,145,109)" stroke-width="1" opacity="1" d="M 301.5 381 L 306 381.5 L 301.5 382 L 301.5 381 Z " /><path fill="rgb(180,145,109)" stroke="rgb(180,145,109)" stroke-width="1" opacity="1" d="M 288.5 382 L 294 382.5 L 288.5 383 L 288.5 382 Z " /><path fill="rgb(180,145,109)" stroke="rgb(180,145,109)" stroke-width="1" opacity="1" d="M 269.5 383 L 279 383.5 L 269.5 384 L 269.5 383 Z " /><path fill="rgb(180,145,109)" stroke="rgb(180,145,109)" stroke-width="1" opacity="1" d="M 233.5 384 L 232.5 386 L 233.5 384 Z " /><path fill="rgb(180,145,109)" stroke="rgb(180,145,109)" stroke-width="1" opacity="1" d="M 345.5 388 L 346 391.5 L 345 391.5 L 345.5 388 Z " /><path fill="rgb(180,145,109)" stroke="rgb(180,145,109)" stroke-width="1" opacity="1" d="M 202.5 390 L 207 390.5 L 202.5 391 L 202.5 390 Z " /><path fill="rgb(180,145,109)" stroke="rgb(180,145,109)" stroke-width="1" opacity="1" d="M 217.5 390 L 220 390.5 L 217.5 391 L 217.5 390 Z " /><path fill="rgb(180,145,109)" stroke="rgb(180,145,109)" stroke-width="1" opacity="1" d="M 343.5 395 L 341.5 398 L 343.5 395 Z " /><path fill="rgb(180,145,109)" stroke="rgb(180,145,109)" stroke-width="1" opacity="1" d="M 329.5 401 L 332 401.5 L 329.5 402 L 329.5 401 Z " /><path fill="rgb(180,145,109)" stroke="rgb(180,145,109)" stroke-width="1" opacity="1" d="M 318.5 403 L 321 403.5 L 318.5 404 L 318.5 403 Z " /><path fill="rgb(180,145,109)" stroke="rgb(180,145,109)" stroke-width="1" opacity="1" d="M 312.5 404 L 315 404.5 L 312.5 405 L 312.5 404 Z " /><path fill="rgb(180,145,109)" stroke="rgb(180,145,109)" stroke-width="1" opacity="1" d="M 307.5 405 L 310 405.5 L 307.5 406 L 307.5 405 Z " /><path fill="rgb(180,145,109)" stroke="rgb(180,145,109)" stroke-width="1" opacity="1" d="M 301.5 406 L 304 406.5 L 301.5 407 L 301.5 406 Z " /><path fill="rgb(180,145,109)" stroke="rgb(180,145,109)" stroke-width="1" opacity="1" d="M 290.5 408 L 293 408.5 L 290.5 409 L 290.5 408 Z " /><path fill="rgb(180,145,109)" stroke="rgb(180,145,109)" stroke-width="1" opacity="1" d="M 284.5 409 L 287 409.5 L 284.5 410 L 284.5 409 Z " /><path fill="rgb(180,145,109)" stroke="rgb(180,145,109)" stroke-width="1" opacity="1" d="M 123.5 411 L 136 411.5 L 123.5 412 L 123.5 411 Z " /><path fill="rgb(180,145,109)" stroke="rgb(180,145,109)" stroke-width="1" opacity="1" d="M 273.5 411 L 276 411.5 L 273.5 412 L 273.5 411 Z " /><path fill="rgb(180,145,109)" stroke="rgb(180,145,109)" stroke-width="1" opacity="1" d="M 140.5 412 L 143 412.5 L 140.5 413 L 140.5 412 Z " /><path fill="rgb(180,145,109)" stroke="rgb(180,145,109)" stroke-width="1" opacity="1" d="M 267.5 412 L 270 412.5 L 267.5 413 L 267.5 412 Z " /><path fill="rgb(180,145,109)" stroke="rgb(180,145,109)" stroke-width="1" opacity="1" d="M 145.5 413 L 148 413.5 L 145.5 414 L 145.5 413 Z " /><path fill="rgb(180,145,109)" stroke="rgb(180,145,109)" stroke-width="1" opacity="1" d="M 262.5 413 L 265 413.5 L 262.5 414 L 262.5 413 Z " /><path fill="rgb(180,145,109)" stroke="rgb(180,145,109)" stroke-width="1" opacity="1" d="M 256.5 414 L 259 414.5 L 256.5 415 L 256.5 414 Z " /><path fill="rgb(180,145,109)" stroke="rgb(180,145,109)" stroke-width="1" opacity="1" d="M 251.5 415 L 254 415.5 L 251.5 416 L 251.5 415 Z " /><path fill="rgb(180,145,109)" stroke="rgb(180,145,109)" stroke-width="1" opacity="1" d="M 245.5 416 L 248 416.5 L 245.5 417 L 245.5 416 Z " /><path fill="rgb(180,145,109)" stroke="rgb(180,145,109)" stroke-width="1" opacity="1" d="M 85.5 417 L 87 420.5 L 86 420.5 L 85.5 417 Z " /><path fill="rgb(180,145,109)" stroke="rgb(180,145,109)" stroke-width="1" opacity="1" d="M 239.5 417 L 242 417.5 L 239.5 418 L 239.5 417 Z " /><path fill="rgb(180,145,109)" stroke="rgb(180,145,109)" stroke-width="1" opacity="1" d="M 234.5 418 L 237 418.5 L 234.5 419 L 234.5 418 Z " /><path fill="rgb(180,145,109)" stroke="rgb(180,145,109)" stroke-width="1" opacity="1" d="M 228.5 419 L 231 419.5 L 228.5 420 L 228.5 419 Z " /><path fill="rgb(180,145,109)" stroke="rgb(180,145,109)" stroke-width="1" opacity="1" d="M 217.5 421 L 220 421.5 L 217.5 422 L 217.5 421 Z " /><path fill="rgb(180,145,109)" stroke="rgb(180,145,109)" stroke-width="1" opacity="1" d="M 87.5 422 L 88.5 424 L 87.5 422 Z " /><path fill="rgb(180,145,109)" stroke="rgb(180,145,109)" stroke-width="1" opacity="1" d="M 211.5 422 L 214 422.5 L 211.5 423 L 211.5 422 Z " /><path fill="rgb(180,145,109)" stroke="rgb(180,145,109)" stroke-width="1" opacity="1" d="M 182.5 423 L 185 423.5 L 182.5 424 L 182.5 423 Z " /><path fill="rgb(180,145,109)" stroke="rgb(180,145,109)" stroke-width="1" opacity="1" d="M 203.5 423 L 207 423.5 L 203.5 424 L 203.5 423 Z " /><path fill="rgb(180,145,109)" stroke="rgb(180,145,109)" stroke-width="1" opacity="1" d="M 190.5 424 L 197 424.5 L 190.5 425 L 190.5 424 Z " /><path fill="rgb(0,0,0)" stroke="rgb(0,0,0)" stroke-width="1" opacity="0.5372549019607843" d="M 234.5 26 L 241 26.5 L 234.5 27 L 234.5 26 Z " /><path fill="rgb(0,0,0)" stroke="rgb(0,0,0)" stroke-width="1" opacity="0.5372549019607843" d="M 270.5 26 L 276 26.5 L 270.5 27 L 270.5 26 Z " /><path fill="rgb(0,0,0)" stroke="rgb(0,0,0)" stroke-width="1" opacity="0.5372549019607843" d="M 225.5 27 L 230 27.5 L 225.5 28 L 225.5 27 Z " /><path fill="rgb(0,0,0)" stroke="rgb(0,0,0)" stroke-width="1" opacity="0.5372549019607843" d="M 281.5 27 L 285 27.5 L 281.5 28 L 281.5 27 Z " /><path fill="rgb(0,0,0)" stroke="rgb(0,0,0)" stroke-width="1" opacity="0.5372549019607843" d="M 219.5 28 L 222 28.5 L 219.5 29 L 219.5 28 Z " /><path fill="rgb(0,0,0)" stroke="rgb(0,0,0)" stroke-width="1" opacity="0.5372549019607843" d="M 289.5 28 L 292 28.5 L 289.5 29 L 289.5 28 Z " /><path fill="rgb(0,0,0)" stroke="rgb(0,0,0)" stroke-width="1" opacity="0.5372549019607843" d="M 213.5 29 L 216 29.5 L 213.5 30 L 213.5 29 Z " /><path fill="rgb(0,0,0)" stroke="rgb(0,0,0)" stroke-width="1" opacity="0.5372549019607843" d="M 295.5 29 L 298 29.5 L 295.5 30 L 295.5 29 Z " /><path fill="rgb(0,0,0)" stroke="rgb(0,0,0)" stroke-width="1" opacity="0.5372549019607843" d="M 208.5 30 L 211 30.5 L 208.5 31 L 208.5 30 Z " /><path fill="rgb(0,0,0)" stroke="rgb(0,0,0)" stroke-width="1" opacity="0.5372549019607843" d="M 305.5 31 L 308 31.5 L 305.5 32 L 305.5 31 Z " /><path fill="rgb(0,0,0)" stroke="rgb(0,0,0)" stroke-width="1" opacity="0.5372549019607843" d="M 238.5 36 L 245 36.5 L 238.5 37 L 238.5 36 Z " /><path fill="rgb(0,0,0)" stroke="rgb(0,0,0)" stroke-width="1" opacity="0.5372549019607843" d="M 268.5 36 L 275 36.5 L 268.5 37 L 268.5 36 Z " /><path fill="rgb(0,0,0)" stroke="rgb(0,0,0)" stroke-width="1" opacity="0.5372549019607843" d="M 228.5 37 L 232 37.5 L 228.5 38 L 228.5 37 Z " /><path fill="rgb(0,0,0)" stroke="rgb(0,0,0)" stroke-width="1" opacity="0.5372549019607843" d="M 280.5 37 L 284 37.5 L 280.5 38 L 280.5 37 Z " /><path fill="rgb(0,0,0)" stroke="rgb(0,0,0)" stroke-width="1" opacity="0.5372549019607843" d="M 221.5 38 L 224 38.5 L 221.5 39 L 221.5 38 Z " /><path fill="rgb(0,0,0)" stroke="rgb(0,0,0)" stroke-width="1" opacity="0.5372549019607843" d="M 288.5 38 L 291 38.5 L 288.5 39 L 288.5 38 Z " /><path fill="rgb(0,0,0)" stroke="rgb(0,0,0)" stroke-width="1" opacity="0.5372549019607843" d="M 215.5 39 L 218 39.5 L 215.5 40 L 215.5 39 Z " /><path fill="rgb(0,0,0)" stroke="rgb(0,0,0)" stroke-width="1" opacity="0.5372549019607843" d="M 294.5 39 L 297 39.5 L 294.5 40 L 294.5 39 Z " /><path fill="rgb(0,0,0)" stroke="rgb(0,0,0)" stroke-width="1" opacity="0.5372549019607843" d="M 210.5 40 L 213 40.5 L 210.5 41 L 210.5 40 Z " /><path fill="rgb(0,0,0)" stroke="rgb(0,0,0)" stroke-width="1" opacity="0.5372549019607843" d="M 304.5 41 L 307 41.5 L 304.5 42 L 304.5 41 Z " /><path fill="rgb(0,0,0)" stroke="rgb(0,0,0)" stroke-width="1" opacity="0.5372549019607843" d="M 153.5 49 L 155 49.5 L 152.5 51 L 153.5 49 Z " /><path fill="rgb(0,0,0)" stroke="rgb(0,0,0)" stroke-width="1" opacity="0.5372549019607843" d="M 463.5 54 L 467.5 59 L 463.5 54 Z " /><path fill="rgb(0,0,0)" stroke="rgb(0,0,0)" stroke-width="1" opacity="0.5372549019607843" d="M 368.5 55 L 369.5 57 L 368.5 55 Z " /><path fill="rgb(0,0,0)" stroke="rgb(0,0,0)" stroke-width="1" opacity="0.5372549019607843" d="M 132.5 61 L 131.5 63 L 132.5 61 Z " /><path fill="rgb(0,0,0)" stroke="rgb(0,0,0)" stroke-width="1" opacity="0.5372549019607843" d="M 369.5 61 L 367.5 64 L 369.5 61 Z " /><path fill="rgb(0,0,0)" stroke="rgb(0,0,0)" stroke-width="1" opacity="0.5372549019607843" d="M 129.5 63 L 128.5 65 L 129.5 63 Z " /><path fill="rgb(0,0,0)" stroke="rgb(0,0,0)" stroke-width="1" opacity="0.5372549019607843" d="M 126.5 65 L 125.5 67 L 126.5 65 Z " /><path fill="rgb(0,0,0)" stroke="rgb(0,0,0)" stroke-width="1" opacity="0.5372549019607843" d="M 424.5 65 L 423.5 67 L 424.5 65 Z " /><path fill="rgb(0,0,0)" stroke="rgb(0,0,0)" stroke-width="1" opacity="0.5372549019607843" d="M 140.5 68 L 139.5 70 L 140.5 68 Z " /><path fill="rgb(0,0,0)" stroke="rgb(0,0,0)" stroke-width="1" opacity="0.5372549019607843" d="M 422.5 68 L 421.5 70 L 422.5 68 Z " /><path fill="rgb(0,0,0)" stroke="rgb(0,0,0)" stroke-width="1" opacity="0.5372549019607843" d="M 119.5 70 L 118.5 72 L 119.5 70 Z " /><path fill="rgb(0,0,0)" stroke="rgb(0,0,0)" stroke-width="1" opacity="0.5372549019607843" d="M 135.5 71 L 134.5 73 L 135.5 71 Z " /><path fill="rgb(0,0,0)" stroke="rgb(0,0,0)" stroke-width="1" opacity="0.5372549019607843" d="M 115.5 73 L 113.5 76 L 115.5 73 Z " /><path fill="rgb(0,0,0)" stroke="rgb(0,0,0)" stroke-width="1" opacity="0.5372549019607843" d="M 128.5 76 L 127.5 78 L 128.5 76 Z " /><path fill="rgb(0,0,0)" stroke="rgb(0,0,0)" stroke-width="1" opacity="0.5372549019607843" d="M 110.5 77 L 108.5 80 L 110.5 77 Z " /><path fill="rgb(0,0,0)" stroke="rgb(0,0,0)" stroke-width="1" opacity="0.5372549019607843" d="M 312.5 77 L 325 77.5 L 312.5 78 L 312.5 77 Z " /><path fill="rgb(0,0,0)" stroke="rgb(0,0,0)" stroke-width="1" opacity="0.5372549019607843" d="M 125.5 78 L 123.5 81 L 125.5 78 Z " /><path fill="rgb(0,0,0)" stroke="rgb(0,0,0)" stroke-width="1" opacity="0.5372549019607843" d="M 303.5 78 L 307 78.5 L 303.5 79 L 303.5 78 Z " /><path fill="rgb(0,0,0)" stroke="rgb(0,0,0)" stroke-width="1" opacity="0.5372549019607843" d="M 296.5 79 L 299 79.5 L 296.5 80 L 296.5 79 Z " /><path fill="rgb(0,0,0)" stroke="rgb(0,0,0)" stroke-width="1" opacity="0.5372549019607843" d="M 121.5 81 L 119.5 84 L 121.5 81 Z " /><path fill="rgb(0,0,0)" stroke="rgb(0,0,0)" stroke-width="1" opacity="0.5372549019607843" d="M 285.5 81 L 288 81.5 L 285.5 82 L 285.5 81 Z " /><path fill="rgb(0,0,0)" stroke="rgb(0,0,0)" stroke-width="1" opacity="0.5372549019607843" d="M 279.5 82 L 282 82.5 L 279.5 83 L 279.5 82 Z " /><path fill="rgb(0,0,0)" stroke="rgb(0,0,0)" stroke-width="1" opacity="0.5372549019607843" d="M 103.5 83 L 95.5 92 L 103.5 83 Z " /><path fill="rgb(0,0,0)" stroke="rgb(0,0,0)" stroke-width="1" opacity="0.5372549019607843" d="M 274.5 83 L 277 83.5 L 274.5 84 L 274.5 83 Z " /><path fill="rgb(0,0,0)" stroke="rgb(0,0,0)" stroke-width="1" opacity="0.5372549019607843" d="M 268.5 84 L 271 84.5 L 268.5 85 L 268.5 84 Z " /><path fill="rgb(0,0,0)" stroke="rgb(0,0,0)" stroke-width="1" opacity="0.5372549019607843" d="M 116.5 85 L 114.5 88 L 116.5 85 Z " /><path fill="rgb(0,0,0)" stroke="rgb(0,0,0)" stroke-width="1" opacity="0.5372549019607843" d="M 257.5 86 L 260 86.5 L 257.5 87 L 257.5 86 Z " /><path fill="rgb(0,0,0)" stroke="rgb(0,0,0)" stroke-width="1" opacity="0.5372549019607843" d="M 251.5 87 L 254 87.5 L 251.5 88 L 251.5 87 Z " /><path fill="rgb(0,0,0)" stroke="rgb(0,0,0)" stroke-width="1" opacity="0.5372549019607843" d="M 246.5 88 L 249 88.5 L 246.5 89 L 246.5 88 Z " /><path fill="rgb(0,0,0)" stroke="rgb(0,0,0)" stroke-width="1" opacity="0.5372549019607843" d="M 366.5 88 L 369 88.5 L 366.5 89 L 366.5 88 Z " /><path fill="rgb(0,0,0)" stroke="rgb(0,0,0)" stroke-width="1" opacity="0.5372549019607843" d="M 240.5 89 L 243 89.5 L 240.5 90 L 240.5 89 Z " /><path fill="rgb(0,0,0)" stroke="rgb(0,0,0)" stroke-width="1" opacity="0.5372549019607843" d="M 371.5 89 L 375 89.5 L 371.5 90 L 371.5 89 Z " /><path fill="rgb(0,0,0)" stroke="rgb(0,0,0)" stroke-width="1" opacity="0.5372549019607843" d="M 390.5 89 L 393 89.5 L 390.5 90 L 390.5 89 Z " /><path fill="rgb(0,0,0)" stroke="rgb(0,0,0)" stroke-width="1" opacity="0.5372549019607843" d="M 234.5 90 L 237 90.5 L 234.5 91 L 234.5 90 Z " /><path fill="rgb(0,0,0)" stroke="rgb(0,0,0)" stroke-width="1" opacity="0.5372549019607843" d="M 381.5 90 L 384 90.5 L 381.5 91 L 381.5 90 Z " /><path fill="rgb(0,0,0)" stroke="rgb(0,0,0)" stroke-width="1" opacity="0.5372549019607843" d="M 109.5 91 L 91.5 110 L 109.5 91 Z " /><path fill="rgb(0,0,0)" stroke="rgb(0,0,0)" stroke-width="1" opacity="0.5372549019607843" d="M 229.5 91 L 232 91.5 L 229.5 92 L 229.5 91 Z " /><path fill="rgb(0,0,0)" stroke="rgb(0,0,0)" stroke-width="1" opacity="0.5372549019607843" d="M 223.5 92 L 226 92.5 L 223.5 93 L 223.5 92 Z " /><path fill="rgb(0,0,0)" stroke="rgb(0,0,0)" stroke-width="1" opacity="0.5372549019607843" d="M 212.5 94 L 215 94.5 L 212.5 95 L 212.5 94 Z " /><path fill="rgb(0,0,0)" stroke="rgb(0,0,0)" stroke-width="1" opacity="0.5372549019607843" d="M 91.5 95 L 83.5 104 L 91.5 95 Z " /><path fill="rgb(0,0,0)" stroke="rgb(0,0,0)" stroke-width="1" opacity="0.5372549019607843" d="M 206.5 95 L 209 95.5 L 206.5 96 L 206.5 95 Z " /><path fill="rgb(0,0,0)" stroke="rgb(0,0,0)" stroke-width="1" opacity="0.5372549019607843" d="M 201.5 96 L 204 96.5 L 201.5 97 L 201.5 96 Z " /><path fill="rgb(0,0,0)" stroke="rgb(0,0,0)" stroke-width="1" opacity="0.5372549019607843" d="M 195.5 97 L 198 97.5 L 195.5 98 L 195.5 97 Z " /><path fill="rgb(0,0,0)" stroke="rgb(0,0,0)" stroke-width="1" opacity="0.5372549019607843" d="M 189.5 98 L 192 98.5 L 189.5 99 L 189.5 98 Z " /><path fill="rgb(0,0,0)" stroke="rgb(0,0,0)" stroke-width="1" opacity="0.5372549019607843" d="M 184.5 99 L 187 99.5 L 184.5 100 L 184.5 99 Z " /><path fill="rgb(0,0,0)" stroke="rgb(0,0,0)" stroke-width="1" opacity="0.5372549019607843" d="M 178.5 100 L 181 100.5 L 178.5 101 L 178.5 100 Z " /><path fill="rgb(0,0,0)" stroke="rgb(0,0,0)" stroke-width="1" opacity="0.5372549019607843" d="M 165.5 105 L 164.5 107 L 165.5 105 Z " /><path fill="rgb(0,0,0)" stroke="rgb(0,0,0)" stroke-width="1" opacity="0.5372549019607843" d="M 80.5 107 L 78.5 110 L 80.5 107 Z " /><path fill="rgb(0,0,0)" stroke="rgb(0,0,0)" stroke-width="1" opacity="0.5372549019607843" d="M 160.5 110 L 159.5 112 L 160.5 110 Z " /><path fill="rgb(0,0,0)" stroke="rgb(0,0,0)" stroke-width="1" opacity="0.5372549019607843" d="M 75.5 113 L 74.5 115 L 75.5 113 Z " /><path fill="rgb(0,0,0)" stroke="rgb(0,0,0)" stroke-width="1" opacity="0.5372549019607843" d="M 88.5 113 L 85.5 117 L 88.5 113 Z " /><path fill="rgb(0,0,0)" stroke="rgb(0,0,0)" stroke-width="1" opacity="0.5372549019607843" d="M 72.5 117 L 71.5 119 L 72.5 117 Z " /><path fill="rgb(0,0,0)" stroke="rgb(0,0,0)" stroke-width="1" opacity="0.5372549019607843" d="M 156.5 118 L 157 125.5 L 156 125.5 L 156.5 118 Z " /><path fill="rgb(0,0,0)" stroke="rgb(0,0,0)" stroke-width="1" opacity="0.5372549019607843" d="M 83.5 119 L 81.5 122 L 83.5 119 Z " /><path fill="rgb(0,0,0)" stroke="rgb(0,0,0)" stroke-width="1" opacity="0.5372549019607843" d="M 69.5 121 L 68.5 123 L 69.5 121 Z " /><path fill="rgb(0,0,0)" stroke="rgb(0,0,0)" stroke-width="1" opacity="0.5372549019607843" d="M 80.5 123 L 78.5 126 L 80.5 123 Z " /><path fill="rgb(0,0,0)" stroke="rgb(0,0,0)" stroke-width="1" opacity="0.5372549019607843" d="M 67.5 124 L 66.5 126 L 67.5 124 Z " /><path fill="rgb(0,0,0)" stroke="rgb(0,0,0)" stroke-width="1" opacity="0.5372549019607843" d="M 77.5 127 L 76.5 129 L 77.5 127 Z " /><path fill="rgb(0,0,0)" stroke="rgb(0,0,0)" stroke-width="1" opacity="0.5372549019607843" d="M 61.5 133 L 60.5 135 L 61.5 133 Z " /><path fill="rgb(0,0,0)" stroke="rgb(0,0,0)" stroke-width="1" opacity="0.5372549019607843" d="M 69.5 139 L 68.5 141 L 69.5 139 Z " /><path fill="rgb(0,0,0)" stroke="rgb(0,0,0)" stroke-width="1" opacity="0.5372549019607843" d="M 176.5 143 Q 179.8 141.9 179 144.5 L 177.5 144 L 176.5 143 Z " /><path fill="rgb(0,0,0)" stroke="rgb(0,0,0)" stroke-width="1" opacity="0.5372549019607843" d="M 66.5 144 L 65.5 146 L 66.5 144 Z " /><path fill="rgb(0,0,0)" stroke="rgb(0,0,0)" stroke-width="1" opacity="0.5372549019607843" d="M 175.5 146 L 174.5 148 L 175.5 146 Z " /><path fill="rgb(0,0,0)" stroke="rgb(0,0,0)" stroke-width="1" opacity="0.5372549019607843" d="M 171.5 149 L 169.5 152 L 171.5 149 Z " /><path fill="rgb(0,0,0)" stroke="rgb(0,0,0)" stroke-width="1" opacity="0.5372549019607843" d="M 165.5 154 L 154.5 166 L 165.5 154 Z " /><path fill="rgb(0,0,0)" stroke="rgb(0,0,0)" stroke-width="1" opacity="0.5372549019607843" d="M 461.5 161 L 462.5 163 L 461.5 161 Z " /><path fill="rgb(0,0,0)" stroke="rgb(0,0,0)" stroke-width="1" opacity="0.5372549019607843" d="M 151.5 169 L 149.5 172 L 151.5 169 Z " /><path fill="rgb(0,0,0)" stroke="rgb(0,0,0)" stroke-width="1" opacity="0.5372549019607843" d="M 147.5 174 L 146.5 176 L 147.5 174 Z " /><path fill="rgb(0,0,0)" stroke="rgb(0,0,0)" stroke-width="1" opacity="0.5372549019607843" d="M 144.5 178 L 143.5 180 L 144.5 178 Z " /><path fill="rgb(0,0,0)" stroke="rgb(0,0,0)" stroke-width="1" opacity="0.5372549019607843" d="M 142.5 181 L 141.5 183 L 142.5 181 Z " /><path fill="rgb(0,0,0)" stroke="rgb(0,0,0)" stroke-width="1" opacity="0.5372549019607843" d="M 139.5 186 L 138.5 188 L 139.5 186 Z " /><path fill="rgb(0,0,0)" stroke="rgb(0,0,0)" stroke-width="1" opacity="0.5372549019607843" d="M 469.5 188 L 467.5 191 L 469.5 188 Z " /><path fill="rgb(0,0,0)" stroke="rgb(0,0,0)" stroke-width="1" opacity="0.5372549019607843" d="M 477.5 190 L 478.5 192 L 477.5 190 Z " /><path fill="rgb(0,0,0)" stroke="rgb(0,0,0)" stroke-width="1" opacity="0.5372549019607843" d="M 481.5 193 L 482.5 195 L 481.5 193 Z " /><path fill="rgb(0,0,0)" stroke="rgb(0,0,0)" stroke-width="1" opacity="0.5372549019607843" d="M 485.5 196 L 486.5 198 L 485.5 196 Z " /><path fill="rgb(0,0,0)" stroke="rgb(0,0,0)" stroke-width="1" opacity="0.5372549019607843" d="M 489.5 199 L 491.5 202 L 489.5 199 Z " /><path fill="rgb(0,0,0)" stroke="rgb(0,0,0)" stroke-width="1" opacity="0.5372549019607843" d="M 494.5 203 L 495.5 205 L 494.5 203 Z " /><path fill="rgb(0,0,0)" stroke="rgb(0,0,0)" stroke-width="1" opacity="0.5372549019607843" d="M 480.5 205 L 481 208.5 L 480 208.5 L 480.5 205 Z " /><path fill="rgb(0,0,0)" stroke="rgb(0,0,0)" stroke-width="1" opacity="0.5372549019607843" d="M 498.5 206 L 499.5 208 L 498.5 206 Z " /><path fill="rgb(0,0,0)" stroke="rgb(0,0,0)" stroke-width="1" opacity="0.5372549019607843" d="M 41.5 207 L 42 209.5 L 41 209.5 L 41.5 207 Z " /><path fill="rgb(0,0,0)" stroke="rgb(0,0,0)" stroke-width="1" opacity="0.5372549019607843" d="M 483.5 207 L 484.5 209 L 483.5 207 Z " /><path fill="rgb(0,0,0)" stroke="rgb(0,0,0)" stroke-width="1" opacity="0.5372549019607843" d="M 470.5 208 L 471 210 L 469 209.5 L 470.5 208 Z " /><path fill="rgb(0,0,0)" stroke="rgb(0,0,0)" stroke-width="1" opacity="0.5372549019607843" d="M 487.5 210 L 489.5 213 L 487.5 210 Z " /><path fill="rgb(0,0,0)" stroke="rgb(0,0,0)" stroke-width="1" opacity="0.5372549019607843" d="M 502.5 210 L 503 213.5 L 502 213.5 L 502.5 210 Z " /><path fill="rgb(0,0,0)" stroke="rgb(0,0,0)" stroke-width="1" opacity="0.5372549019607843" d="M 40.5 212 L 41 214.5 L 40 214.5 L 40.5 212 Z " /><path fill="rgb(0,0,0)" stroke="rgb(0,0,0)" stroke-width="1" opacity="0.5372549019607843" d="M 471.5 212 L 472 214.5 L 471 214.5 L 471.5 212 Z " /><path fill="rgb(0,0,0)" stroke="rgb(0,0,0)" stroke-width="1" opacity="0.5372549019607843" d="M 481.5 212 L 482 214.5 L 481 214.5 L 481.5 212 Z " /><path fill="rgb(0,0,0)" stroke="rgb(0,0,0)" stroke-width="1" opacity="0.5372549019607843" d="M 491.5 213 L 493.5 216 L 491.5 213 Z " /><path fill="rgb(0,0,0)" stroke="rgb(0,0,0)" stroke-width="1" opacity="0.5372549019607843" d="M 501.5 215 L 500.5 217 L 501.5 215 Z " /><path fill="rgb(0,0,0)" stroke="rgb(0,0,0)" stroke-width="1" opacity="0.5372549019607843" d="M 29.5 217 L 30 220.5 L 29 220.5 L 29.5 217 Z " /><path fill="rgb(0,0,0)" stroke="rgb(0,0,0)" stroke-width="1" opacity="0.5372549019607843" d="M 39.5 218 L 40 220.5 L 39 220.5 L 39.5 218 Z " /><path fill="rgb(0,0,0)" stroke="rgb(0,0,0)" stroke-width="1" opacity="0.5372549019607843" d="M 472.5 218 L 473 220.5 L 472 220.5 L 472.5 218 Z " /><path fill="rgb(0,0,0)" stroke="rgb(0,0,0)" stroke-width="1" opacity="0.5372549019607843" d="M 482.5 218 L 483 220.5 L 482 220.5 L 482.5 218 Z " /><path fill="rgb(0,0,0)" stroke="rgb(0,0,0)" stroke-width="1" opacity="0.5372549019607843" d="M 28.5 224 L 29 227.5 L 28 227.5 L 28.5 224 Z " /><path fill="rgb(0,0,0)" stroke="rgb(0,0,0)" stroke-width="1" opacity="0.5372549019607843" d="M 38.5 225 L 39 228.5 L 38 228.5 L 38.5 225 Z " /><path fill="rgb(0,0,0)" stroke="rgb(0,0,0)" stroke-width="1" opacity="0.5372549019607843" d="M 388.5 225 L 389 227.5 L 388 227.5 L 388.5 225 Z " /><path fill="rgb(0,0,0)" stroke="rgb(0,0,0)" stroke-width="1" opacity="0.5372549019607843" d="M 456.5 225 L 460 225.5 L 456.5 226 L 456.5 225 Z " /><path fill="rgb(0,0,0)" stroke="rgb(0,0,0)" stroke-width="1" opacity="0.5372549019607843" d="M 473.5 225 L 474 228.5 L 473 228.5 L 473.5 225 Z " /><path fill="rgb(0,0,0)" stroke="rgb(0,0,0)" stroke-width="1" opacity="0.5372549019607843" d="M 483.5 225 L 484 228.5 L 483 228.5 L 483.5 225 Z " /><path fill="rgb(0,0,0)" stroke="rgb(0,0,0)" stroke-width="1" opacity="0.5372549019607843" d="M 122.5 230 L 123 232.5 L 122 232.5 L 122.5 230 Z " /><path fill="rgb(0,0,0)" stroke="rgb(0,0,0)" stroke-width="1" opacity="0.5372549019607843" d="M 389.5 230 L 390 232.5 L 389 232.5 L 389.5 230 Z " /><path fill="rgb(0,0,0)" stroke="rgb(0,0,0)" stroke-width="1" opacity="0.5372549019607843" d="M 27.5 233 L 28 238.5 L 27 238.5 L 27.5 233 Z " /><path fill="rgb(0,0,0)" stroke="rgb(0,0,0)" stroke-width="1" opacity="0.5372549019607843" d="M 37.5 233 L 38 238.5 L 37 238.5 L 37.5 233 Z " /><path fill="rgb(0,0,0)" stroke="rgb(0,0,0)" stroke-width="1" opacity="0.5372549019607843" d="M 474.5 234 L 475 239.5 L 474 239.5 L 474.5 234 Z " /><path fill="rgb(0,0,0)" stroke="rgb(0,0,0)" stroke-width="1" opacity="0.5372549019607843" d="M 484.5 234 L 485 240.5 L 484 240.5 L 484.5 234 Z " /><path fill="rgb(0,0,0)" stroke="rgb(0,0,0)" stroke-width="1" opacity="0.5372549019607843" d="M 121.5 236 L 122 238.5 L 121 238.5 L 121.5 236 Z " /><path fill="rgb(0,0,0)" stroke="rgb(0,0,0)" stroke-width="1" opacity="0.5372549019607843" d="M 390.5 236 L 391 239.5 L 390 239.5 L 390.5 236 Z " /><path fill="rgb(0,0,0)" stroke="rgb(0,0,0)" stroke-width="1" opacity="0.5372549019607843" d="M 120.5 244 L 121 253.5 L 120 253.5 L 120.5 244 Z " /><path fill="rgb(0,0,0)" stroke="rgb(0,0,0)" stroke-width="1" opacity="0.5372549019607843" d="M 391.5 245 L 392 267.5 L 391 267.5 L 391.5 245 Z " /><path fill="rgb(0,0,0)" stroke="rgb(0,0,0)" stroke-width="1" opacity="0.5372549019607843" d="M 36.5 249 L 37 261.5 L 36 261.5 L 36.5 249 Z " /><path fill="rgb(0,0,0)" stroke="rgb(0,0,0)" stroke-width="1" opacity="0.5372549019607843" d="M 475.5 250 L 476 261.5 L 475 261.5 L 475.5 250 Z " /><path fill="rgb(0,0,0)" stroke="rgb(0,0,0)" stroke-width="1" opacity="0.5372549019607843" d="M 26.5 251 L 27 260.5 L 26 260.5 L 26.5 251 Z " /><path fill="rgb(0,0,0)" stroke="rgb(0,0,0)" stroke-width="1" opacity="0.5372549019607843" d="M 485.5 255 L 486 257.5 L 485 257.5 L 485.5 255 Z " /><path fill="rgb(0,0,0)" stroke="rgb(0,0,0)" stroke-width="1" opacity="0.5372549019607843" d="M 120.5 258 L 121 267.5 L 120 267.5 L 120.5 258 Z " /><path fill="rgb(0,0,0)" stroke="rgb(0,0,0)" stroke-width="1" opacity="0.5372549019607843" d="M 27.5 272 L 28 277.5 L 27 277.5 L 27.5 272 Z " /><path fill="rgb(0,0,0)" stroke="rgb(0,0,0)" stroke-width="1" opacity="0.5372549019607843" d="M 37.5 272 L 38 277.5 L 37 277.5 L 37.5 272 Z " /><path fill="rgb(0,0,0)" stroke="rgb(0,0,0)" stroke-width="1" opacity="0.5372549019607843" d="M 390.5 272 L 391 275.5 L 390 275.5 L 390.5 272 Z " /><path fill="rgb(0,0,0)" stroke="rgb(0,0,0)" stroke-width="1" opacity="0.5372549019607843" d="M 484.5 272 L 485 278.5 L 484 278.5 L 484.5 272 Z " /><path fill="rgb(0,0,0)" stroke="rgb(0,0,0)" stroke-width="1" opacity="0.5372549019607843" d="M 121.5 273 L 122 275.5 L 121 275.5 L 121.5 273 Z " /><path fill="rgb(0,0,0)" stroke="rgb(0,0,0)" stroke-width="1" opacity="0.5372549019607843" d="M 474.5 273 L 475 278.5 L 474 278.5 L 474.5 273 Z " /><path fill="rgb(0,0,0)" stroke="rgb(0,0,0)" stroke-width="1" opacity="0.5372549019607843" d="M 122.5 279 L 123 281.5 L 122 281.5 L 122.5 279 Z " /><path fill="rgb(0,0,0)" stroke="rgb(0,0,0)" stroke-width="1" opacity="0.5372549019607843" d="M 389.5 279 L 390 281.5 L 389 281.5 L 389.5 279 Z " /><path fill="rgb(0,0,0)" stroke="rgb(0,0,0)" stroke-width="1" opacity="0.5372549019607843" d="M 28.5 283 L 29 286.5 L 28 286.5 L 28.5 283 Z " /><path fill="rgb(0,0,0)" stroke="rgb(0,0,0)" stroke-width="1" opacity="0.5372549019607843" d="M 38.5 283 L 39 286.5 L 38 286.5 L 38.5 283 Z " /><path fill="rgb(0,0,0)" stroke="rgb(0,0,0)" stroke-width="1" opacity="0.5372549019607843" d="M 473.5 283 L 474 286.5 L 473 286.5 L 473.5 283 Z " /><path fill="rgb(0,0,0)" stroke="rgb(0,0,0)" stroke-width="1" opacity="0.5372549019607843" d="M 483.5 283 L 484 287.5 L 483 287.5 L 483.5 283 Z " /><path fill="rgb(0,0,0)" stroke="rgb(0,0,0)" stroke-width="1" opacity="0.5372549019607843" d="M 123.5 284 L 124 286.5 L 123 286.5 L 123.5 284 Z " /><path fill="rgb(0,0,0)" stroke="rgb(0,0,0)" stroke-width="1" opacity="0.5372549019607843" d="M 388.5 284 L 389 286.5 L 388 286.5 L 388.5 284 Z " /><path fill="rgb(0,0,0)" stroke="rgb(0,0,0)" stroke-width="1" opacity="0.5372549019607843" d="M 52.5 286 L 56 286.5 L 52.5 287 L 52.5 286 Z " /><path fill="rgb(0,0,0)" stroke="rgb(0,0,0)" stroke-width="1" opacity="0.5372549019607843" d="M 50.5 287 L 49.5 289 L 50.5 287 Z " /><path fill="rgb(0,0,0)" stroke="rgb(0,0,0)" stroke-width="1" opacity="0.5372549019607843" d="M 58.5 289 L 59 293.5 L 58 293.5 L 58.5 289 Z " /><path fill="rgb(0,0,0)" stroke="rgb(0,0,0)" stroke-width="1" opacity="0.5372549019607843" d="M 29.5 291 L 30 294.5 L 29 294.5 L 29.5 291 Z " /><path fill="rgb(0,0,0)" stroke="rgb(0,0,0)" stroke-width="1" opacity="0.5372549019607843" d="M 39.5 291 L 40 293.5 L 39 293.5 L 39.5 291 Z " /><path fill="rgb(0,0,0)" stroke="rgb(0,0,0)" stroke-width="1" opacity="0.5372549019607843" d="M 472.5 291 L 473 293.5 L 472 293.5 L 472.5 291 Z " /><path fill="rgb(0,0,0)" stroke="rgb(0,0,0)" stroke-width="1" opacity="0.5372549019607843" d="M 482.5 291 L 483 293.5 L 482 293.5 L 482.5 291 Z " /><path fill="rgb(0,0,0)" stroke="rgb(0,0,0)" stroke-width="1" opacity="0.5372549019607843" d="M 11.5 295 L 10.5 297 L 11.5 295 Z " /><path fill="rgb(0,0,0)" stroke="rgb(0,0,0)" stroke-width="1" opacity="0.5372549019607843" d="M 18.5 296 L 20.5 299 L 18.5 296 Z " /><path fill="rgb(0,0,0)" stroke="rgb(0,0,0)" stroke-width="1" opacity="0.5372549019607843" d="M 40.5 297 L 41 299.5 L 40 299.5 L 40.5 297 Z " /><path fill="rgb(0,0,0)" stroke="rgb(0,0,0)" stroke-width="1" opacity="0.5372549019607843" d="M 481.5 297 L 482 299.5 L 481 299.5 L 481.5 297 Z " /><path fill="rgb(0,0,0)" stroke="rgb(0,0,0)" stroke-width="1" opacity="0.5372549019607843" d="M 30.5 298 L 31 300.5 L 30 300.5 L 30.5 298 Z " /><path fill="rgb(0,0,0)" stroke="rgb(0,0,0)" stroke-width="1" opacity="0.5372549019607843" d="M 23.5 300 L 24.5 302 L 23.5 300 Z " /><path fill="rgb(0,0,0)" stroke="rgb(0,0,0)" stroke-width="1" opacity="0.5372549019607843" d="M 41 302 L 43 302.5 L 41 303.5 L 41 302 Z " /><path fill="rgb(0,0,0)" stroke="rgb(0,0,0)" stroke-width="1" opacity="0.5372549019607843" d="M 27.5 303 L 28.5 305 L 27.5 303 Z " /><path fill="rgb(0,0,0)" stroke="rgb(0,0,0)" stroke-width="1" opacity="0.5372549019607843" d="M 31.5 303 L 32 306.5 L 31 306.5 L 31.5 303 Z " /><path fill="rgb(0,0,0)" stroke="rgb(0,0,0)" stroke-width="1" opacity="0.5372549019607843" d="M 12.5 304 L 13.5 306 L 12.5 304 Z " /><path fill="rgb(0,0,0)" stroke="rgb(0,0,0)" stroke-width="1" opacity="0.5372549019607843" d="M 16.5 307 L 18.5 310 L 16.5 307 Z " /><path fill="rgb(0,0,0)" stroke="rgb(0,0,0)" stroke-width="1" opacity="0.5372549019607843" d="M 20.5 310 L 22.5 313 L 20.5 310 Z " /><path fill="rgb(0,0,0)" stroke="rgb(0,0,0)" stroke-width="1" opacity="0.5372549019607843" d="M 25.5 314 L 26.5 316 L 25.5 314 Z " /><path fill="rgb(0,0,0)" stroke="rgb(0,0,0)" stroke-width="1" opacity="0.5372549019607843" d="M 29.5 317 L 30.5 319 L 29.5 317 Z " /><path fill="rgb(0,0,0)" stroke="rgb(0,0,0)" stroke-width="1" opacity="0.5372549019607843" d="M 33.5 320 L 34.5 322 L 33.5 320 Z " /><path fill="rgb(0,0,0)" stroke="rgb(0,0,0)" stroke-width="1" opacity="0.5372549019607843" d="M 44.5 321 L 42.5 324 L 44.5 321 Z " /><path fill="rgb(0,0,0)" stroke="rgb(0,0,0)" stroke-width="1" opacity="0.5372549019607843" d="M 373.5 324 L 372.5 326 L 373.5 324 Z " /><path fill="rgb(0,0,0)" stroke="rgb(0,0,0)" stroke-width="1" opacity="0.5372549019607843" d="M 365.5 336 L 364.5 338 L 365.5 336 Z " /><path fill="rgb(0,0,0)" stroke="rgb(0,0,0)" stroke-width="1" opacity="0.5372549019607843" d="M 362.5 340 L 360.5 343 L 362.5 340 Z " /><path fill="rgb(0,0,0)" stroke="rgb(0,0,0)" stroke-width="1" opacity="0.5372549019607843" d="M 356.5 347 L 347.5 357 L 356.5 347 Z " /><path fill="rgb(0,0,0)" stroke="rgb(0,0,0)" stroke-width="1" opacity="0.5372549019607843" d="M 49.5 349 L 50.5 351 L 49.5 349 Z " /><path fill="rgb(0,0,0)" stroke="rgb(0,0,0)" stroke-width="1" opacity="0.5372549019607843" d="M 342.5 360 L 340.5 363 L 342.5 360 Z " /><path fill="rgb(0,0,0)" stroke="rgb(0,0,0)" stroke-width="1" opacity="0.5372549019607843" d="M 337.5 364 L 336.5 366 L 337.5 364 Z " /><path fill="rgb(0,0,0)" stroke="rgb(0,0,0)" stroke-width="1" opacity="0.5372549019607843" d="M 334.5 366 L 334.5 368 L 336 368.5 L 333 369 L 334.5 366 Z " /><path fill="rgb(0,0,0)" stroke="rgb(0,0,0)" stroke-width="1" opacity="0.5372549019607843" d="M 446.5 366 L 445.5 368 L 446.5 366 Z " /><path fill="rgb(0,0,0)" stroke="rgb(0,0,0)" stroke-width="1" opacity="0.5372549019607843" d="M 443.5 371 L 442.5 373 L 443.5 371 Z " /><path fill="rgb(0,0,0)" stroke="rgb(0,0,0)" stroke-width="1" opacity="0.5372549019607843" d="M 454.5 372 L 453.5 374 L 454.5 372 Z " /><path fill="rgb(0,0,0)" stroke="rgb(0,0,0)" stroke-width="1" opacity="0.5372549019607843" d="M 451.5 377 L 450.5 379 L 451.5 377 Z " /><path fill="rgb(0,0,0)" stroke="rgb(0,0,0)" stroke-width="1" opacity="0.5372549019607843" d="M 437.5 380 L 436.5 382 L 437.5 380 Z " /><path fill="rgb(0,0,0)" stroke="rgb(0,0,0)" stroke-width="1" opacity="0.5372549019607843" d="M 449.5 380 L 448.5 382 L 449.5 380 Z " /><path fill="rgb(0,0,0)" stroke="rgb(0,0,0)" stroke-width="1" opacity="0.5372549019607843" d="M 435.5 383 L 434.5 385 L 435.5 383 Z " /><path fill="rgb(0,0,0)" stroke="rgb(0,0,0)" stroke-width="1" opacity="0.5372549019607843" d="M 355.5 386 L 356 393.5 L 355 393.5 L 355.5 386 Z " /><path fill="rgb(0,0,0)" stroke="rgb(0,0,0)" stroke-width="1" opacity="0.5372549019607843" d="M 445.5 386 L 444.5 388 L 445.5 386 Z " /><path fill="rgb(0,0,0)" stroke="rgb(0,0,0)" stroke-width="1" opacity="0.5372549019607843" d="M 432.5 387 L 431.5 389 L 432.5 387 Z " /><path fill="rgb(0,0,0)" stroke="rgb(0,0,0)" stroke-width="1" opacity="0.5372549019607843" d="M 443.5 389 L 442.5 391 L 443.5 389 Z " /><path fill="rgb(0,0,0)" stroke="rgb(0,0,0)" stroke-width="1" opacity="0.5372549019607843" d="M 429.5 391 L 428.5 393 L 429.5 391 Z " /><path fill="rgb(0,0,0)" stroke="rgb(0,0,0)" stroke-width="1" opacity="0.5372549019607843" d="M 440.5 393 L 439.5 395 L 440.5 393 Z " /><path fill="rgb(0,0,0)" stroke="rgb(0,0,0)" stroke-width="1" opacity="0.5372549019607843" d="M 425.5 396 L 423.5 399 L 425.5 396 Z " /><path fill="rgb(0,0,0)" stroke="rgb(0,0,0)" stroke-width="1" opacity="0.5372549019607843" d="M 437.5 397 L 435.5 400 L 437.5 397 Z " /><path fill="rgb(0,0,0)" stroke="rgb(0,0,0)" stroke-width="1" opacity="0.5372549019607843" d="M 352.5 400 L 351.5 402 L 352.5 400 Z " /><path fill="rgb(0,0,0)" stroke="rgb(0,0,0)" stroke-width="1" opacity="0.5372549019607843" d="M 433.5 402 L 431.5 405 L 433.5 402 Z " /><path fill="rgb(0,0,0)" stroke="rgb(0,0,0)" stroke-width="1" opacity="0.5372549019607843" d="M 419.5 403 L 402.5 421 L 419.5 403 Z " /><path fill="rgb(0,0,0)" stroke="rgb(0,0,0)" stroke-width="1" opacity="0.5372549019607843" d="M 348.5 404 L 346.5 407 L 348.5 404 Z " /><path fill="rgb(0,0,0)" stroke="rgb(0,0,0)" stroke-width="1" opacity="0.5372549019607843" d="M 427.5 409 L 419.5 418 L 427.5 409 Z " /><path fill="rgb(0,0,0)" stroke="rgb(0,0,0)" stroke-width="1" opacity="0.5372549019607843" d="M 331.5 411 L 334 411.5 L 331.5 412 L 331.5 411 Z " /><path fill="rgb(0,0,0)" stroke="rgb(0,0,0)" stroke-width="1" opacity="0.5372549019607843" d="M 325.5 412 L 328 412.5 L 325.5 413 L 325.5 412 Z " /><path fill="rgb(0,0,0)" stroke="rgb(0,0,0)" stroke-width="1" opacity="0.5372549019607843" d="M 314.5 414 L 317 414.5 L 314.5 415 L 314.5 414 Z " /><path fill="rgb(0,0,0)" stroke="rgb(0,0,0)" stroke-width="1" opacity="0.5372549019607843" d="M 303.5 416 L 306 416.5 L 303.5 417 L 303.5 416 Z " /><path fill="rgb(0,0,0)" stroke="rgb(0,0,0)" stroke-width="1" opacity="0.5372549019607843" d="M 297.5 417 L 300 417.5 L 297.5 418 L 297.5 417 Z " /><path fill="rgb(0,0,0)" stroke="rgb(0,0,0)" stroke-width="1" opacity="0.5372549019607843" d="M 286.5 419 L 289 419.5 L 286.5 420 L 286.5 419 Z " /><path fill="rgb(0,0,0)" stroke="rgb(0,0,0)" stroke-width="1" opacity="0.5372549019607843" d="M 417.5 419 L 409.5 428 L 417.5 419 Z " /><path fill="rgb(0,0,0)" stroke="rgb(0,0,0)" stroke-width="1" opacity="0.5372549019607843" d="M 280.5 420 L 283 420.5 L 280.5 421 L 280.5 420 Z " /><path fill="rgb(0,0,0)" stroke="rgb(0,0,0)" stroke-width="1" opacity="0.5372549019607843" d="M 127.5 421 L 132 421.5 L 127.5 422 L 127.5 421 Z " /><path fill="rgb(0,0,0)" stroke="rgb(0,0,0)" stroke-width="1" opacity="0.5372549019607843" d="M 275.5 421 L 278 421.5 L 275.5 422 L 275.5 421 Z " /><path fill="rgb(0,0,0)" stroke="rgb(0,0,0)" stroke-width="1" opacity="0.5372549019607843" d="M 118.5 422 L 121 422.5 L 118.5 423 L 118.5 422 Z " /><path fill="rgb(0,0,0)" stroke="rgb(0,0,0)" stroke-width="1" opacity="0.5372549019607843" d="M 138.5 422 L 141 422.5 L 138.5 423 L 138.5 422 Z " /><path fill="rgb(0,0,0)" stroke="rgb(0,0,0)" stroke-width="1" opacity="0.5372549019607843" d="M 269.5 422 L 272 422.5 L 269.5 423 L 269.5 422 Z " /><path fill="rgb(0,0,0)" stroke="rgb(0,0,0)" stroke-width="1" opacity="0.5372549019607843" d="M 263.5 423 L 266 423.5 L 263.5 424 L 263.5 423 Z " /><path fill="rgb(0,0,0)" stroke="rgb(0,0,0)" stroke-width="1" opacity="0.5372549019607843" d="M 398.5 423 L 396.5 426 L 398.5 423 Z " /><path fill="rgb(0,0,0)" stroke="rgb(0,0,0)" stroke-width="1" opacity="0.5372549019607843" d="M 258.5 424 L 261 424.5 L 258.5 425 L 258.5 424 Z " /><path fill="rgb(0,0,0)" stroke="rgb(0,0,0)" stroke-width="1" opacity="0.5372549019607843" d="M 252.5 425 L 255 425.5 L 252.5 426 L 252.5 425 Z " /><path fill="rgb(0,0,0)" stroke="rgb(0,0,0)" stroke-width="1" opacity="0.5372549019607843" d="M 241.5 427 L 244 427.5 L 241.5 428 L 241.5 427 Z " /><path fill="rgb(0,0,0)" stroke="rgb(0,0,0)" stroke-width="1" opacity="0.5372549019607843" d="M 235.5 428 L 238 428.5 L 235.5 429 L 235.5 428 Z " /><path fill="rgb(0,0,0)" stroke="rgb(0,0,0)" stroke-width="1" opacity="0.5372549019607843" d="M 392.5 428 L 391.5 430 L 392.5 428 Z " /><path fill="rgb(0,0,0)" stroke="rgb(0,0,0)" stroke-width="1" opacity="0.5372549019607843" d="M 230.5 429 L 233 429.5 L 230.5 430 L 230.5 429 Z " /><path fill="rgb(0,0,0)" stroke="rgb(0,0,0)" stroke-width="1" opacity="0.5372549019607843" d="M 224.5 430 L 227 430.5 L 224.5 431 L 224.5 430 Z " /><path fill="rgb(0,0,0)" stroke="rgb(0,0,0)" stroke-width="1" opacity="0.5372549019607843" d="M 218.5 431 L 221 431.5 L 218.5 432 L 218.5 431 Z " /><path fill="rgb(0,0,0)" stroke="rgb(0,0,0)" stroke-width="1" opacity="0.5372549019607843" d="M 388.5 431 L 387.5 433 L 388.5 431 Z " /><path fill="rgb(0,0,0)" stroke="rgb(0,0,0)" stroke-width="1" opacity="0.5372549019607843" d="M 404.5 431 L 402.5 434 L 404.5 431 Z " /><path fill="rgb(0,0,0)" stroke="rgb(0,0,0)" stroke-width="1" opacity="0.5372549019607843" d="M 213.5 432 L 216 432.5 L 213.5 433 L 213.5 432 Z " /><path fill="rgb(0,0,0)" stroke="rgb(0,0,0)" stroke-width="1" opacity="0.5372549019607843" d="M 205.5 433 L 209 433.5 L 205.5 434 L 205.5 433 Z " /><path fill="rgb(0,0,0)" stroke="rgb(0,0,0)" stroke-width="1" opacity="0.5372549019607843" d="M 187.5 434 L 199 434.5 L 187.5 435 L 187.5 434 Z " /><path fill="rgb(0,0,0)" stroke="rgb(0,0,0)" stroke-width="1" opacity="0.5372549019607843" d="M 384.5 434 L 383.5 436 L 384.5 434 Z " /><path fill="rgb(0,0,0)" stroke="rgb(0,0,0)" stroke-width="1" opacity="0.5372549019607843" d="M 398.5 436 L 396.5 439 L 398.5 436 Z " /><path fill="rgb(0,0,0)" stroke="rgb(0,0,0)" stroke-width="1" opacity="0.5372549019607843" d="M 394.5 439 L 392.5 442 L 394.5 439 Z " /><path fill="rgb(0,0,0)" stroke="rgb(0,0,0)" stroke-width="1" opacity="0.5372549019607843" d="M 90.5 442 L 89.5 444 L 90.5 442 Z " /><path fill="rgb(0,0,0)" stroke="rgb(0,0,0)" stroke-width="1" opacity="0.5372549019607843" d="M 372.5 442 L 371.5 444 L 372.5 442 Z " /><path fill="rgb(0,0,0)" stroke="rgb(0,0,0)" stroke-width="1" opacity="0.5372549019607843" d="M 390.5 442 L 389.5 444 L 390.5 442 Z " /><path fill="rgb(0,0,0)" stroke="rgb(0,0,0)" stroke-width="1" opacity="0.5372549019607843" d="M 386.5 445 L 385.5 447 L 386.5 445 Z " /><path fill="rgb(0,0,0)" stroke="rgb(0,0,0)" stroke-width="1" opacity="0.5372549019607843" d="M 383.5 447 L 382.5 449 L 383.5 447 Z " /><path fill="rgb(0,0,0)" stroke="rgb(0,0,0)" stroke-width="1" opacity="0.5372549019607843" d="M 144.5 448 L 142.5 451 L 144.5 448 Z " /><path fill="rgb(0,0,0)" stroke="rgb(0,0,0)" stroke-width="1" opacity="0.5372549019607843" d="M 151.5 449 L 152.5 451 L 151.5 449 Z " /><path fill="rgb(0,0,0)" stroke="rgb(0,0,0)" stroke-width="1" opacity="0.5372549019607843" d="M 380.5 449 L 379.5 451 L 380.5 449 Z " /><path fill="rgb(0,0,0)" stroke="rgb(0,0,0)" stroke-width="1" opacity="0.5372549019607843" d="M 356.5 451 L 355.5 453 L 356.5 451 Z " /><path fill="rgb(0,0,0)" stroke="rgb(0,0,0)" stroke-width="1" opacity="0.5372549019607843" d="M 44.5 453 L 48.5 458 L 44.5 453 Z " /><path fill="rgb(0,0,0)" stroke="rgb(0,0,0)" stroke-width="1" opacity="0.5372549019607843" d="M 142.5 455 L 143.5 457 L 142.5 455 Z " /><path fill="rgb(0,0,0)" stroke="rgb(0,0,0)" stroke-width="1" opacity="0.5372549019607843" d="M 370.5 455 L 369.5 457 L 370.5 455 Z " /><path fill="rgb(0,0,0)" stroke="rgb(0,0,0)" stroke-width="1" opacity="0.5372549019607843" d="M 201.5 469 L 204 469.5 L 201.5 470 L 201.5 469 Z " /><path fill="rgb(0,0,0)" stroke="rgb(0,0,0)" stroke-width="1" opacity="0.5372549019607843" d="M 210.5 471 L 213 471.5 L 210.5 472 L 210.5 471 Z " /><path fill="rgb(0,0,0)" stroke="rgb(0,0,0)" stroke-width="1" opacity="0.5372549019607843" d="M 299.5 471 L 302 471.5 L 299.5 472 L 299.5 471 Z " /><path fill="rgb(0,0,0)" stroke="rgb(0,0,0)" stroke-width="1" opacity="0.5372549019607843" d="M 215.5 472 L 218 472.5 L 215.5 473 L 215.5 472 Z " /><path fill="rgb(0,0,0)" stroke="rgb(0,0,0)" stroke-width="1" opacity="0.5372549019607843" d="M 221.5 473 L 224 473.5 L 221.5 474 L 221.5 473 Z " /><path fill="rgb(0,0,0)" stroke="rgb(0,0,0)" stroke-width="1" opacity="0.5372549019607843" d="M 287.5 473 L 291 473.5 L 287.5 474 L 287.5 473 Z " /><path fill="rgb(0,0,0)" stroke="rgb(0,0,0)" stroke-width="1" opacity="0.5372549019607843" d="M 228.5 474 L 232 474.5 L 228.5 475 L 228.5 474 Z " /><path fill="rgb(0,0,0)" stroke="rgb(0,0,0)" stroke-width="1" opacity="0.5372549019607843" d="M 279.5 474 L 284 474.5 L 279.5 475 L 279.5 474 Z " /><path fill="rgb(0,0,0)" stroke="rgb(0,0,0)" stroke-width="1" opacity="0.5372549019607843" d="M 237.5 475 L 244 475.5 L 237.5 476 L 237.5 475 Z " /><path fill="rgb(0,0,0)" stroke="rgb(0,0,0)" stroke-width="1" opacity="0.5372549019607843" d="M 267.5 475 L 274 475.5 L 267.5 476 L 267.5 475 Z " /><path fill="rgb(0,0,0)" stroke="rgb(0,0,0)" stroke-width="1" opacity="0.5372549019607843" d="M 310.5 479 L 313 479.5 L 310.5 480 L 310.5 479 Z " /><path fill="rgb(0,0,0)" stroke="rgb(0,0,0)" stroke-width="1" opacity="0.5372549019607843" d="M 204.5 480 L 207 480.5 L 204.5 481 L 204.5 480 Z " /><path fill="rgb(0,0,0)" stroke="rgb(0,0,0)" stroke-width="1" opacity="0.5372549019607843" d="M 209.5 481 L 212 481.5 L 209.5 482 L 209.5 481 Z " /><path fill="rgb(0,0,0)" stroke="rgb(0,0,0)" stroke-width="1" opacity="0.5372549019607843" d="M 301.5 481 L 304 481.5 L 301.5 482 L 301.5 481 Z " /><path fill="rgb(0,0,0)" stroke="rgb(0,0,0)" stroke-width="1" opacity="0.5372549019607843" d="M 214.5 482 L 217 482.5 L 214.5 483 L 214.5 482 Z " /><path fill="rgb(0,0,0)" stroke="rgb(0,0,0)" stroke-width="1" opacity="0.5372549019607843" d="M 296.5 482 L 299 482.5 L 296.5 483 L 296.5 482 Z " /><path fill="rgb(0,0,0)" stroke="rgb(0,0,0)" stroke-width="1" opacity="0.5372549019607843" d="M 220.5 483 L 223 483.5 L 220.5 484 L 220.5 483 Z " /><path fill="rgb(0,0,0)" stroke="rgb(0,0,0)" stroke-width="1" opacity="0.5372549019607843" d="M 290.5 483 L 293 483.5 L 290.5 484 L 290.5 483 Z " /><path fill="rgb(0,0,0)" stroke="rgb(0,0,0)" stroke-width="1" opacity="0.5372549019607843" d="M 227.5 484 L 231 484.5 L 227.5 485 L 227.5 484 Z " /><path fill="rgb(0,0,0)" stroke="rgb(0,0,0)" stroke-width="1" opacity="0.5372549019607843" d="M 282.5 484 L 287 484.5 L 282.5 485 L 282.5 484 Z " /><path fill="rgb(0,0,0)" stroke="rgb(0,0,0)" stroke-width="1" opacity="0.5372549019607843" d="M 236.5 485 L 242 485.5 L 236.5 486 L 236.5 485 Z " /><path fill="rgb(0,0,0)" stroke="rgb(0,0,0)" stroke-width="1" opacity="0.5372549019607843" d="M 271.5 485 L 278 485.5 L 271.5 486 L 271.5 485 Z " /><path fill="rgb(0,0,0)" stroke="rgb(0,0,0)" stroke-width="1" opacity="0" d="M 0 0 L 512 0 L 512 512 L 0 512 L 0 0 Z M 235 26 L 234 27 L 226 27 L 219 29 L 214 29 L 193 34 L 165 44 Q 130 59 104 83 Q 68 114 47 159 Q 38 179 32 203 L 28 225 L 27 251 L 26 252 L 27 278 L 28 279 L 30 301 L 31 302 L 31 306 L 19 296 L 12 295 Q 8 296 9 302 L 35 322 Q 37 325 43 324 L 45 322 L 59 294 Q 60 287 56 286 L 51 287 L 43 301 Q 44 303 41 302 L 39 291 L 39 284 L 38 283 L 38 273 L 37 272 L 37 240 L 38 239 L 38 230 L 39 229 L 39 222 L 42 206 L 46 191 Q 60 144 89 113 Q 118 79 160 58 L 197 44 L 225 38 L 245 37 L 246 36 L 280 37 L 309 42 Q 339 49 363 64 L 368 64 Q 371 63 370 57 Q 343 39 308 31 L 285 27 L 277 27 L 276 26 L 235 26 Z M 450 52 L 425 65 Q 419 69 420 79 Q 407 87 390 90 L 376 90 L 365 88 L 336 79 L 325 77 L 313 77 L 312 78 L 297 79 L 263 86 L 252 87 L 218 94 L 179 100 L 166 105 Q 158 109 156 119 L 157 129 L 162 137 L 173 143 L 178 145 L 166 154 Q 149 168 138 188 Q 130 201 125 218 L 120 245 L 120 268 L 121 269 L 123 287 L 127 301 L 136 320 L 122 324 L 83 342 L 55 351 L 52 351 L 46 347 L 36 347 L 10 360 L 6 368 L 7 379 L 44 454 L 53 460 L 63 460 L 88 447 L 92 440 L 92 433 L 110 425 L 122 422 L 144 423 L 177 433 L 188 435 L 199 435 L 200 434 L 216 433 L 250 426 L 317 415 L 323 413 L 334 412 L 347 407 Q 354 403 356 394 L 355 384 L 350 375 L 340 369 L 334 368 L 348 357 Q 369 337 382 309 L 389 287 L 391 269 L 392 268 L 392 246 L 391 245 L 391 237 L 389 226 L 385 212 L 376 193 L 391 188 L 430 170 L 458 161 L 461 161 L 467 165 L 477 165 L 499 154 L 506 145 L 505 134 L 468 59 Q 464 50 450 52 Z M 472 187 L 470 188 L 467 191 L 453 219 Q 452 225 457 226 L 462 225 L 469 212 Q 468 209 471 210 L 473 222 L 473 229 L 474 230 L 474 240 L 475 241 L 475 273 L 474 274 L 474 283 L 473 284 L 473 291 L 470 307 L 466 322 Q 451 367 423 400 Q 394 433 353 454 L 316 468 L 294 473 L 280 474 L 279 475 L 268 475 L 267 476 L 233 475 L 200 469 Q 171 462 150 448 L 145 448 Q 141 449 142 456 L 161 466 L 190 477 L 215 483 L 236 485 L 237 486 L 278 486 L 279 485 L 287 485 L 313 480 L 333 474 Q 377 457 410 428 Q 444 398 465 354 Q 474 333 480 310 L 484 288 L 485 259 L 486 258 L 485 255 L 485 235 L 481 212 L 482 206 L 494 216 L 501 217 Q 504 216 503 211 L 478 190 L 472 187 Z " /><path fill="rgb(1,3,3)" stroke="rgb(1,3,3)" stroke-width="1" opacity="0.996078431372549" d="M 241.5 26 L 269.5 26 L 270.5 27 L 288.5 28 L 309.5 32 L 343.5 43 L 366.5 54 L 370 57.5 Q 370.8 63.3 366.5 64 L 363.5 64 L 335.5 50 L 306.5 41 L 283.5 37 L 275.5 37 L 274.5 36 L 238.5 36 L 237.5 37 L 228.5 37 L 227.5 38 L 215.5 39 L 198.5 43 Q 178 48.5 160.5 57 Q 119.5 77 91 109.5 Q 66.1 137.1 51 174.5 L 44 195.5 L 40 212.5 L 38 232.5 L 37 233.5 L 36 261.5 L 37 262.5 L 38 286.5 L 41.5 304 L 51.5 287 Q 56.8 285.8 58 288.5 L 58 294.5 L 45 320.5 L 41.5 324 L 36.5 323 L 10 302.5 L 9 299.5 L 12.5 295 L 17.5 296 L 31.5 307 L 32 303.5 L 30 297.5 L 29 283.5 L 28 282.5 L 28 272.5 L 27 271.5 L 27 239.5 L 28 238.5 L 28 228.5 L 29 227.5 L 30 214.5 L 35 192.5 L 48 157.5 Q 66.1 119.6 94.5 92 Q 124.2 62.2 165.5 44 L 197.5 33 L 222.5 28 L 240.5 27 L 241.5 26 Z " /><path fill="rgb(1,3,3)" stroke="rgb(1,3,3)" stroke-width="1" opacity="0.996078431372549" d="M 451.5 52 Q 464.1 51.4 468 59.5 L 504 132.5 L 506 142.5 Q 504.5 149.5 499.5 153 L 477.5 164 L 468.5 165 L 458.5 160 L 430.5 169 L 389.5 188 L 377.5 191 L 376 192.5 Q 385.9 210.1 390 233.5 Q 388.5 239 391 240.5 L 391 271.5 L 387 292.5 Q 382.1 309.6 374 323.5 Q 361.7 344.7 343.5 360 L 333 367.5 Q 332.1 370.9 337.5 369 Q 347.1 371.4 352 378.5 Q 356.8 383.7 355 395.5 L 349.5 404 L 335.5 411 L 314.5 414 L 308.5 416 L 263.5 423 L 212.5 433 L 183.5 434 L 145.5 423 L 127.5 421 L 126.5 422 L 118.5 422 L 105.5 426 L 92 433.5 Q 92.4 444.4 85.5 448 L 63.5 459 L 54.5 460 Q 47.3 458.2 44 452.5 L 8 379.5 L 6 369.5 Q 7.5 362.6 12.5 359 L 34.5 348 L 44.5 347 L 52.5 352 L 81.5 343 L 122.5 324 L 134.5 321 L 136 319.5 Q 128.3 305.7 124 288.5 L 121 272.5 Q 122.4 261.6 120 254.5 L 121 253.5 L 121 239.5 L 122 238.5 L 123 227.5 L 131 202.5 Q 144.4 171.9 168.5 152 L 179 145 Q 180.3 141.3 174.5 143 Q 164.9 140.6 160 133.5 Q 155.2 128.3 157 116.5 L 163.5 107 L 176.5 101 L 231.5 92 L 237.5 90 L 248.5 89 L 265.5 85 L 276.5 84 L 293.5 80 L 306.5 79 L 307.5 78 L 328.5 78 L 366.5 89 L 383.5 91 L 384.5 90 L 397.5 89 L 406.5 86 L 420 78.5 Q 419.6 67.6 426.5 64 L 451.5 52 Z M 453 62 L 434 71 L 430 75 L 430 79 L 433 86 L 466 153 L 469 155 L 474 155 L 483 151 L 493 146 L 496 143 L 496 139 L 459 64 Q 458 61 453 62 Z M 316 87 L 315 88 L 306 88 L 305 89 L 293 90 L 259 97 L 209 105 L 203 107 L 181 110 L 171 114 L 166 121 L 167 127 Q 170 133 179 134 L 200 132 L 201 131 L 210 131 L 211 130 L 243 129 L 244 128 L 276 128 L 277 129 L 284 124 L 296 121 L 314 122 L 335 127 L 357 134 L 361 138 Q 362 143 359 144 L 354 144 L 331 136 L 307 131 Q 292 129 285 135 L 281 141 Q 280 148 282 152 L 291 159 L 327 170 L 359 183 Q 370 185 378 182 L 425 161 L 455 152 L 424 88 L 405 97 L 392 100 L 373 100 L 359 97 L 330 88 L 316 87 Z M 242 138 L 241 139 L 224 139 L 223 140 L 212 140 L 214 146 L 214 157 L 203 172 L 203 175 L 212 186 L 212 194 L 206 204 Q 201 211 192 214 L 185 214 L 177 212 L 176 217 L 175 236 L 170 249 Q 165 257 155 259 Q 139 261 130 257 L 131 274 L 134 289 Q 139 304 146 318 L 148 319 L 154 319 L 164 322 L 199 336 L 221 342 L 231 347 Q 243 354 241 374 L 273 374 L 274 373 L 290 373 L 294 372 L 274 366 L 266 362 Q 260 358 258 351 Q 257 338 262 332 L 270 326 L 277 327 L 287 333 L 290 333 L 291 331 Q 293 319 287 314 L 283 309 L 258 302 L 249 297 Q 243 294 241 287 L 242 278 L 251 266 L 249 258 L 240 243 L 237 235 Q 236 225 239 221 L 249 213 L 264 209 L 267 206 L 268 196 L 270 192 Q 274 186 282 183 L 289 184 Q 293 187 294 193 L 294 205 L 293 206 L 292 218 L 286 239 L 287 246 L 300 253 Q 306 258 308 267 L 313 271 L 325 272 L 329 274 L 333 280 L 336 281 L 344 278 Q 350 269 361 264 L 369 262 L 382 262 L 382 247 L 381 246 L 379 228 Q 374 209 366 195 L 365 193 L 359 193 L 349 190 L 331 182 L 292 170 L 282 165 Q 274 160 271 151 L 271 138 L 242 138 Z M 201 143 L 177 158 Q 156 175 143 200 L 135 220 L 130 246 L 139 249 L 154 249 L 158 247 Q 164 243 165 235 L 166 216 L 169 206 L 175 201 L 179 201 L 186 204 L 193 203 L 201 194 L 202 188 L 197 184 L 193 178 L 193 170 L 204 155 L 203 145 L 201 143 Z M 284 193 L 282 194 L 278 198 L 277 208 L 275 212 L 270 217 Q 263 221 253 222 L 247 227 L 247 234 L 258 254 L 261 263 L 260 271 L 252 280 L 251 286 L 260 292 Q 271 297 285 299 L 290 302 Q 298 309 301 322 Q 303 333 298 339 L 292 343 L 283 342 L 272 336 L 268 344 L 269 352 L 276 356 L 296 361 Q 303 364 308 370 Q 324 364 336 354 Q 356 337 369 313 L 377 293 L 381 272 L 365 273 L 347 288 L 339 291 Q 331 292 328 288 L 325 285 L 323 282 L 312 281 L 307 279 Q 299 274 296 264 L 283 255 Q 278 251 276 245 L 277 234 L 280 226 L 284 205 L 284 193 Z M 139 329 L 124 334 L 88 351 L 57 360 L 89 424 L 105 416 L 120 412 L 140 412 L 168 419 L 175 422 L 191 425 L 214 423 L 271 412 L 276 412 L 282 410 L 310 406 L 316 404 L 336 401 L 342 398 L 346 392 L 345 386 Q 342 379 334 378 L 313 380 L 312 381 L 289 382 L 288 383 L 270 383 L 269 384 L 237 384 L 236 383 L 226 389 L 217 391 L 199 390 L 178 385 L 156 378 L 151 375 Q 150 369 154 368 L 159 368 L 182 376 L 206 381 Q 221 383 228 377 L 231 372 Q 233 364 230 361 L 222 353 L 186 342 L 160 331 Q 152 327 139 329 Z M 39 357 L 20 366 L 16 370 L 16 374 L 27 397 L 55 450 L 60 450 L 69 446 L 79 441 L 82 438 L 82 434 L 78 425 L 46 360 Q 45 356 39 357 Z " /><path fill="rgb(1,3,3)" stroke="rgb(1,3,3)" stroke-width="1" opacity="0.996078431372549" d="M 470.5 188 L 475.5 189 L 502 209.5 Q 503.3 215.8 499.5 217 L 494.5 216 L 480.5 205 L 480 208.5 L 483 221.5 L 484 240.5 L 485 241.5 L 485 271.5 L 484 272.5 L 483 290.5 L 478 315.5 L 470 340.5 L 464 354.5 L 447 384.5 L 419 419 L 417.5 419 L 399.5 436 L 375.5 453 L 336.5 472 L 314.5 479 L 289.5 484 L 271.5 485 L 270.5 486 L 242.5 486 L 241.5 485 L 231.5 485 L 230.5 484 L 217.5 483 L 191.5 477 L 159.5 465 L 145.5 458 L 142 454.5 Q 141.3 448.8 145.5 448 L 148.5 448 Q 162.3 457.2 179.5 463 L 210.5 472 L 227.5 474 L 228.5 475 L 236.5 475 L 237.5 476 L 273.5 476 L 274.5 475 L 290.5 474 L 317.5 468 L 353.5 454 Q 392.3 434.3 420 403.5 Q 445.6 375.6 461 337.5 L 469 312.5 L 473 293.5 L 474 279.5 L 475 278.5 L 476 250.5 L 475 249.5 L 474 225.5 L 470.5 208 L 460.5 225 Q 455.3 226.3 454 223.5 L 453 220.5 L 467 191.5 L 470.5 188 Z " /><path fill="rgb(34,140,247)" stroke="rgb(34,140,247)" stroke-width="1" opacity="1" d="M 453.5 62 Q 458.3 61.3 459 64.5 L 488 122.5 L 496 141.5 L 493.5 145 L 475.5 154 L 469.5 155 L 466 151.5 L 456 131.5 L 430 75.5 L 432.5 72 L 453.5 62 Z " /><path fill="rgb(34,140,247)" stroke="rgb(34,140,247)" stroke-width="1" opacity="1" d="M 39.5 357 Q 45.3 356.3 46 360.5 L 75 419.5 L 82 436.5 L 79.5 440 L 58.5 450 L 55.5 450 L 53 447.5 L 24 389.5 L 16 370.5 L 18.5 367 L 39.5 357 Z " /><path fill="rgb(0,74,186)" stroke="rgb(0,74,186)" stroke-width="1" opacity="1" d="M 457.5 62 L 458.5 64 L 457.5 62 Z " /><path fill="rgb(0,74,186)" stroke="rgb(0,74,186)" stroke-width="1" opacity="1" d="M 447.5 64 L 449 64.5 L 443.5 67 L 443.5 66 L 447.5 64 Z " /><path fill="rgb(0,74,186)" stroke="rgb(0,74,186)" stroke-width="1" opacity="1" d="M 433.5 84 L 436 89.5 L 435 89.5 L 433.5 84 Z " /><path fill="rgb(0,74,186)" stroke="rgb(0,74,186)" stroke-width="1" opacity="1" d="M 241.5 138 L 271 138 L 271 150.5 Q 273.7 160.2 281.5 165 L 291.5 170 L 330.5 182 L 348.5 190 L 358.5 193 L 364.5 193 L 366 194.5 Q 374.4 209.1 379 227.5 L 381 245.5 L 382 246.5 L 382 262 L 368.5 262 L 360.5 264 Q 349.9 268.9 343.5 278 L 335.5 281 L 333 280 L 328.5 274 L 324.5 272 L 312.5 271 L 308 266.5 Q 305.9 257.6 299.5 253 L 287 245.5 L 286 238.5 L 292 217.5 L 293 205.5 L 294 204.5 L 294 192.5 Q 292.8 186.8 288.5 184 L 281.5 183 Q 274.1 185.6 270 191.5 L 268 195.5 L 267 205.5 L 263.5 209 L 248.5 213 L 239 220.5 Q 235.7 225.2 237 234.5 L 240 242.5 L 249 257.5 L 251 265.5 L 242 277.5 L 241 286.5 Q 242.8 293.7 248.5 297 L 257.5 302 L 282.5 309 L 287 313.5 Q 292.5 318.5 291 330.5 L 290 333 L 286.5 333 L 276.5 327 L 269.5 326 L 262 331.5 Q 257.4 338.4 258 350.5 Q 259.9 358.1 265.5 362 L 273.5 366 L 294 371.5 L 289.5 373 L 273.5 373 L 272.5 374 L 241 374 Q 243.2 353.6 230.5 347 L 220.5 342 L 198.5 336 L 163.5 322 L 153.5 319 L 147.5 319 L 146 317.5 Q 138.5 304.5 134 288.5 L 131 273.5 L 130 257 Q 138.9 260.7 154.5 259 Q 165.2 256.7 170 248.5 L 175 235.5 L 176 216.5 L 177 212 L 184.5 214 L 191.5 214 Q 200.8 210.8 206 203.5 L 212 193.5 L 212 185.5 L 203 174.5 L 203 171.5 L 214 156.5 L 214 145.5 L 212 140 L 222.5 140 L 223.5 139 L 240.5 139 L 241.5 138 Z " /><path fill="rgb(0,74,186)" stroke="rgb(0,74,186)" stroke-width="1" opacity="1" d="M 466.5 152 L 468.5 155 L 466.5 152 Z " /><path fill="rgb(0,74,186)" stroke="rgb(0,74,186)" stroke-width="1" opacity="1" d="M 198.5 184 L 199.5 186 L 198.5 184 Z " /><path fill="rgb(0,74,186)" stroke="rgb(0,74,186)" stroke-width="1" opacity="1" d="M 43.5 357 L 45.5 360 L 43.5 357 Z " /><path fill="rgb(0,74,186)" stroke="rgb(0,74,186)" stroke-width="1" opacity="1" d="M 304.5 366 L 305.5 368 L 304.5 366 Z " /><path fill="rgb(0,74,186)" stroke="rgb(0,74,186)" stroke-width="1" opacity="1" d="M 75.5 420 L 78 425.5 L 77 425.5 L 75.5 420 Z " /><path fill="rgb(0,74,186)" stroke="rgb(0,74,186)" stroke-width="1" opacity="1" d="M 69.5 444 L 71 444.5 L 67.5 446 L 67.5 445 L 69.5 444 Z " /><path fill="rgb(0,74,186)" stroke="rgb(0,74,186)" stroke-width="1" opacity="1" d="M 53.5 448 L 54.5 450 L 53.5 448 Z " /><path fill="rgb(73,226,136)" stroke="rgb(73,226,136)" stroke-width="1" opacity="1" d="M 200.5 143 Q 202.8 142.3 202 144.5 Q 205.2 146.8 204 153.5 L 194 166.5 L 193 177.5 L 202 188.5 L 202 191.5 L 194.5 201 Q 192.2 204.8 185.5 204 Q 182 200 173.5 201 L 170 203.5 L 166 213.5 L 164 237.5 L 157.5 247 Q 151.4 250.9 139.5 249 L 131 247 L 131 238.5 L 135 220.5 L 146 194.5 Q 157.7 173.7 175.5 159 L 200.5 143 Z " /><path fill="rgb(73,226,136)" stroke="rgb(73,226,136)" stroke-width="1" opacity="1" d="M 281.5 194 L 284 194.5 L 284 202.5 L 280 224.5 L 276 237.5 L 276 245.5 Q 278.3 252.3 283.5 256 L 295 262.5 Q 298.4 273.1 306.5 279 L 314.5 282 Q 321.3 281.1 324 283 L 328.5 289 Q 332.1 291.9 339.5 291 L 349.5 286 Q 356.1 278.1 365.5 273 L 379.5 272 Q 382.3 273.3 380 274.5 L 380 279.5 L 377 291.5 L 365 319.5 Q 353.4 338.9 336.5 353 L 317.5 366 L 307.5 370 L 303.5 365 L 293.5 360 L 275.5 356 L 269 351.5 L 268 345.5 L 271.5 336 L 281.5 342 L 291.5 343 L 299 337.5 Q 302.7 331.7 301 320.5 Q 298 307.5 288.5 301 L 262.5 293 L 252 286.5 L 251 282.5 L 261 268.5 L 261 261.5 L 248 235.5 L 247 227.5 L 250.5 223 Q 265.5 221.5 274 213.5 Q 278.4 207.9 278 197.5 L 281.5 194 Z " /><path fill="rgb(230,177,124)" stroke="rgb(230,177,124)" stroke-width="1" opacity="1" d="M 309.5 88 L 326.5 88 L 364.5 99 L 375.5 100 L 376.5 101 L 387.5 101 L 388.5 100 L 399.5 99 L 423.5 89 L 431 102.5 L 428.5 103 Q 417.3 109.3 402.5 112 L 380.5 112 L 358.5 107 L 332.5 98 L 322.5 96 L 306.5 96 L 270.5 103 L 247.5 106 L 241.5 108 L 218.5 111 L 212.5 113 L 195.5 115 L 189.5 117 L 178.5 118 Q 171.1 119.1 167.5 124 L 167 118.5 Q 170.8 112.8 178.5 111 L 309.5 88 Z " /><path fill="rgb(230,177,124)" stroke="rgb(230,177,124)" stroke-width="1" opacity="1" d="M 291.5 132 L 310.5 132 Q 311.8 134.2 316.5 133 L 357.5 145 L 361 142.5 L 361.5 139 Q 365.8 141.2 365 148.5 Q 363.5 153.5 355.5 152 L 321.5 141 L 310.5 140 L 309.5 139 L 296.5 139 L 287 143.5 L 283.5 152 Q 279.8 149.8 281 142.5 L 285.5 135 L 291.5 132 Z " /><path fill="rgb(230,177,124)" stroke="rgb(230,177,124)" stroke-width="1" opacity="1" d="M 150.5 360 L 156.5 360 L 175.5 367 L 195.5 372 L 215.5 373 L 225 369 L 228.5 360 Q 231.9 362.6 231 369.5 L 226.5 377 L 220.5 380 L 201.5 380 L 179.5 375 L 157.5 367 L 154.5 367 L 151 369.5 L 150.5 374 L 147 367.5 L 147 363.5 L 150.5 360 Z " /><path fill="rgb(230,177,124)" stroke="rgb(230,177,124)" stroke-width="1" opacity="1" d="M 344.5 388 L 345 392.5 L 340.5 398 L 333.5 401 L 323.5 403 L 267.5 412 L 222.5 421 L 203.5 423 L 202.5 424 L 185.5 424 L 147.5 413 L 136.5 412 L 135.5 411 L 123.5 411 L 103.5 416 L 88.5 423 L 81 409.5 L 83.5 409 Q 94.7 402.7 109.5 400 L 131.5 400 L 153.5 405 L 184.5 415 L 189.5 416 L 204.5 416 L 205.5 415 L 211.5 415 L 241.5 409 L 264.5 406 L 270.5 404 L 293.5 401 L 299.5 399 L 322.5 396 L 328.5 394 L 333.5 394 Q 340.9 392.9 344.5 388 Z " /><path fill="rgb(253,214,172)" stroke="rgb(253,214,172)" stroke-width="1" opacity="1" d="M 313.5 96 L 330.5 98 L 372.5 111 L 383.5 112 L 384.5 113 L 398.5 113 L 409.5 111 L 431 103 L 454 150.5 L 452.5 152 L 436.5 156 L 415.5 164 L 381.5 180 L 368.5 183 L 362.5 183 L 354.5 181 L 325.5 169 L 292.5 159 L 285 153.5 Q 283.6 144.2 289.5 142 L 294.5 140 L 304.5 139 L 305.5 140 L 313.5 140 L 323.5 142 L 360.5 153 L 365 149.5 Q 365.8 143.4 364 141 Q 361 142.3 362 138.5 L 358.5 134 L 316.5 122 Q 311.8 123.3 310.5 121 L 291.5 121 Q 282.5 122.5 277.5 128 L 259.5 128 L 257.5 128 L 229.5 128 L 228.5 129 L 215.5 129 L 214.5 130 L 194.5 131 L 186.5 133 L 176.5 133 L 168 126.5 L 167 124.5 L 173.5 120 L 186.5 117 L 209.5 114 L 215.5 112 L 238.5 109 L 244.5 107 L 296.5 99 L 302.5 97 L 312.5 97 L 313.5 96 Z " /><path fill="rgb(253,214,172)" stroke="rgb(253,214,172)" stroke-width="1" opacity="1" d="M 142.5 329 L 149.5 329 L 157.5 331 Q 186 344.5 219.5 353 L 227 358.5 Q 227.9 367.4 222.5 370 L 217.5 372 L 208.5 373 L 207.5 372 L 198.5 372 L 188.5 370 L 151.5 359 L 147 362.5 Q 146.2 368.6 148 371 Q 151 369.8 150 373.5 L 153.5 378 L 195.5 390 Q 200.3 388.7 201.5 391 L 220.5 391 Q 229.5 389.5 234.5 384 L 281.5 384 L 282.5 383 L 296.5 383 L 297.5 382 L 316.5 381 L 325.5 379 L 335.5 379 L 344 385.5 L 345 387.5 L 338.5 392 L 325.5 395 L 244.5 408 L 215.5 414 L 198.5 415 L 196.5 416 L 195.5 415 L 181.5 414 L 139.5 401 L 128.5 400 L 127.5 399 L 113.5 399 L 102.5 401 L 81 409 L 58 361.5 L 59.5 360 L 62.5 360 L 96.5 348 L 127.5 333 L 142.5 329 Z " /></svg>